%TF.GenerationSoftware,Altium Limited,Altium Designer,26.9.1 (10)*%
G04 Layer_Color=16711935*
G04 Board_Origin=0|0*
%FSLAX45Y45*%
%MOMM*%
%TF.SameCoordinates,B17F3394-68FD-4429-B3DD-F48AF8CE0512*%
%TF.FilePolarity,Negative*%
%TF.FileFunction,Soldermask,Bot*%
%TF.Part,Single*%
G01*
G75*
%TA.AperFunction,ComponentPad*%
%ADD51C,2.77500*%
%TA.AperFunction,SMDPad,CuDef*%
%ADD52C,1.00000*%
%TA.AperFunction,ComponentPad*%
%ADD53C,4.39500*%
%TA.AperFunction,ViaPad*%
%ADD54C,1.27000*%
%ADD55C,1.40000*%
%ADD56C,0.80000*%
%ADD57C,0.65000*%
D51*
X6215800Y10733700D02*
D03*
Y10333700D02*
D03*
Y9933700D02*
D03*
X5815800Y10133700D02*
D03*
Y10533700D02*
D03*
X5415800Y9933700D02*
D03*
Y10333700D02*
D03*
Y10733700D02*
D03*
D52*
X9829800Y9906000D02*
D03*
Y10033000D02*
D03*
X9826750Y10156700D02*
D03*
X9829800Y10287000D02*
D03*
D53*
X5765800Y9283700D02*
D03*
Y11383700D02*
D03*
D54*
X6972300Y11658600D02*
D03*
X7112000Y8966200D02*
D03*
X6642100D02*
D03*
X7556500Y9867900D02*
D03*
X7124700Y9690100D02*
D03*
X7899400Y10464800D02*
D03*
X9652000Y10553700D02*
D03*
X8826500Y8852324D02*
D03*
X6972300Y11150600D02*
D03*
X6973234Y10932980D02*
D03*
Y10704380D02*
D03*
D55*
X9436100Y10363200D02*
D03*
X8013600Y8699500D02*
D03*
X9372600Y9842500D02*
D03*
X8356600Y8699500D02*
D03*
D56*
X8026400Y8534400D02*
D03*
X9245600Y10896600D02*
D03*
X8624150Y9233750D02*
D03*
X8098952Y9014142D02*
D03*
X8484450Y8827350D02*
D03*
X6642950Y8395550D02*
D03*
X7049350Y8408250D02*
D03*
X8763000Y10909300D02*
D03*
X8863297Y10809003D02*
D03*
X6870700Y8928100D02*
D03*
Y8356600D02*
D03*
X8275186Y9347623D02*
D03*
X8572500Y9347200D02*
D03*
X8813800Y10464800D02*
D03*
X8432800Y10604500D02*
D03*
D57*
X7645400Y11988800D02*
D03*
Y11760200D02*
D03*
Y11874500D02*
D03*
Y11658600D02*
D03*
%TF.MD5,56c9b8a82a54c7b62382b203bfa98f7d*%
M02*
