%TF.GenerationSoftware,Altium Limited,Altium Designer,26.9.1 (10)*%
G04 Layer_Color=65535*
G04 Board_Origin=0|0*
%FSLAX45Y45*%
%MOMM*%
%TF.SameCoordinates,B17F3394-68FD-4429-B3DD-F48AF8CE0512*%
%TF.FilePolarity,Positive*%
%TF.FileFunction,Legend,Top*%
%TF.Part,Single*%
G01*
G75*
%TA.AperFunction,NonConductor*%
%ADD50C,0.15000*%
%ADD58C,0.12500*%
%ADD59C,0.20000*%
%ADD60C,0.40000*%
%ADD61C,0.25000*%
%ADD62C,0.10000*%
D50*
X6665613Y9060881D02*
Y9114197D01*
Y9087539D01*
X6745587D01*
X6665613Y9140855D02*
X6718929D01*
X6745587Y9167513D01*
X6718929Y9194171D01*
X6665613D01*
X6678942Y9274145D02*
X6665613Y9260816D01*
Y9234158D01*
X6678942Y9220829D01*
X6692271D01*
X6705600Y9234158D01*
Y9260816D01*
X6718929Y9274145D01*
X6732258D01*
X6745587Y9260816D01*
Y9234158D01*
X6732258Y9220829D01*
X6678942Y9300803D02*
X6665613Y9314133D01*
Y9340791D01*
X6678942Y9354119D01*
X6692271D01*
X6705600Y9340791D01*
Y9327461D01*
Y9340791D01*
X6718929Y9354119D01*
X6732258D01*
X6745587Y9340791D01*
Y9314133D01*
X6732258Y9300803D01*
X6538613Y9225981D02*
Y9279297D01*
Y9252639D01*
X6618587D01*
X6538613Y9305955D02*
X6591929D01*
X6618587Y9332613D01*
X6591929Y9359271D01*
X6538613D01*
X6551942Y9439245D02*
X6538613Y9425916D01*
Y9399258D01*
X6551942Y9385929D01*
X6565271D01*
X6578600Y9399258D01*
Y9425916D01*
X6591929Y9439245D01*
X6605258D01*
X6618587Y9425916D01*
Y9399258D01*
X6605258Y9385929D01*
X6618587Y9519219D02*
Y9465903D01*
X6565271Y9519219D01*
X6551942D01*
X6538613Y9505891D01*
Y9479233D01*
X6551942Y9465903D01*
X6783687Y8239155D02*
X6703713D01*
Y8279142D01*
X6717042Y8292471D01*
X6743700D01*
X6757029Y8279142D01*
Y8239155D01*
Y8265813D02*
X6783687Y8292471D01*
X6703713Y8319129D02*
Y8372445D01*
X6717042D01*
X6770358Y8319129D01*
X6783687D01*
X7012287Y8848755D02*
X6932313D01*
Y8888742D01*
X6945642Y8902071D01*
X6972300D01*
X6985629Y8888742D01*
Y8848755D01*
Y8875413D02*
X7012287Y8902071D01*
X6932313Y8982045D02*
X6945642Y8955387D01*
X6972300Y8928729D01*
X6998958D01*
X7012287Y8942058D01*
Y8968716D01*
X6998958Y8982045D01*
X6985629D01*
X6972300Y8968716D01*
Y8928729D01*
X7255848Y8992858D02*
X7242519Y9006187D01*
X7215861D01*
X7202532Y8992858D01*
Y8939542D01*
X7215861Y8926213D01*
X7242519D01*
X7255848Y8939542D01*
X7282506Y8926213D02*
X7309164D01*
X7295836D01*
Y9006187D01*
X7282506Y8992858D01*
X7402468Y9006187D02*
X7375810Y8992858D01*
X7349152Y8966200D01*
Y8939542D01*
X7362481Y8926213D01*
X7389139D01*
X7402468Y8939542D01*
Y8952871D01*
X7389139Y8966200D01*
X7349152D01*
X7141548Y8319758D02*
X7128219Y8333087D01*
X7101561D01*
X7088232Y8319758D01*
Y8266442D01*
X7101561Y8253113D01*
X7128219D01*
X7141548Y8266442D01*
X7168206Y8253113D02*
X7194864D01*
X7181536D01*
Y8333087D01*
X7168206Y8319758D01*
X7288168Y8333087D02*
X7234852D01*
Y8293100D01*
X7261510Y8306429D01*
X7274839D01*
X7288168Y8293100D01*
Y8266442D01*
X7274839Y8253113D01*
X7248181D01*
X7234852Y8266442D01*
X6862148Y9272258D02*
X6848819Y9285587D01*
X6822161D01*
X6808832Y9272258D01*
Y9218942D01*
X6822161Y9205613D01*
X6848819D01*
X6862148Y9218942D01*
X6888806Y9205613D02*
X6915464D01*
X6902136D01*
Y9285587D01*
X6888806Y9272258D01*
X6995439Y9205613D02*
Y9285587D01*
X6955452Y9245600D01*
X7008768D01*
X6900248Y9513558D02*
X6886919Y9526887D01*
X6860261D01*
X6846932Y9513558D01*
Y9460242D01*
X6860261Y9446913D01*
X6886919D01*
X6900248Y9460242D01*
X6926906Y9446913D02*
X6953564D01*
X6940236D01*
Y9526887D01*
X6926906D01*
X6993552Y9513558D02*
X7006881Y9526887D01*
X7033539D01*
X7046868Y9513558D01*
Y9500229D01*
X7033539Y9486900D01*
X7020210D01*
X7033539D01*
X7046868Y9473571D01*
Y9460242D01*
X7033539Y9446913D01*
X7006881D01*
X6993552Y9460242D01*
X7205048Y10237458D02*
X7191719Y10250787D01*
X7165061D01*
X7151732Y10237458D01*
Y10184142D01*
X7165061Y10170813D01*
X7191719D01*
X7205048Y10184142D01*
X7231706Y10170813D02*
X7258364D01*
X7245036D01*
Y10250787D01*
X7231706D01*
X7351668Y10170813D02*
X7298352D01*
X7351668Y10224129D01*
Y10237458D01*
X7338339Y10250787D01*
X7311681D01*
X7298352Y10237458D01*
X7619371Y9411958D02*
X7606042Y9425287D01*
X7579384D01*
X7566055Y9411958D01*
Y9358642D01*
X7579384Y9345313D01*
X7606042D01*
X7619371Y9358642D01*
X7646029Y9411958D02*
X7659358Y9425287D01*
X7686016D01*
X7699345Y9411958D01*
Y9398629D01*
X7686016Y9385300D01*
X7699345Y9371971D01*
Y9358642D01*
X7686016Y9345313D01*
X7659358D01*
X7646029Y9358642D01*
Y9371971D01*
X7659358Y9385300D01*
X7646029Y9398629D01*
Y9411958D01*
X7659358Y9385300D02*
X7686016D01*
X6677684Y9742787D02*
Y9729458D01*
X6704342Y9702800D01*
X6731000Y9729458D01*
Y9742787D01*
X6704342Y9702800D02*
Y9662813D01*
X6757658D02*
X6784316D01*
X6770987D01*
Y9742787D01*
X6757658Y9729458D01*
X7536881Y12321516D02*
Y12254871D01*
X7550210Y12241542D01*
X7576868D01*
X7590197Y12254871D01*
Y12321516D01*
X7616855Y12294858D02*
Y12241542D01*
Y12268200D01*
X7630184Y12281529D01*
X7643513Y12294858D01*
X7656842D01*
X7736816Y12241542D02*
X7710158D01*
X7696829Y12254871D01*
Y12281529D01*
X7710158Y12294858D01*
X7736816D01*
X7750145Y12281529D01*
Y12268200D01*
X7696829D01*
X7803461Y12214884D02*
X7816791D01*
X7830119Y12228213D01*
Y12294858D01*
X7790133D01*
X7776803Y12281529D01*
Y12254871D01*
X7790133Y12241542D01*
X7830119D01*
X6830713Y11983768D02*
Y12037084D01*
Y12010426D01*
X6910687D01*
X6830713Y12063742D02*
X6884029D01*
X6910687Y12090400D01*
X6884029Y12117058D01*
X6830713D01*
X6844041Y12197033D02*
X6830713Y12183704D01*
Y12157046D01*
X6844041Y12143716D01*
X6857371D01*
X6870699Y12157046D01*
Y12183704D01*
X6884029Y12197033D01*
X6897358D01*
X6910687Y12183704D01*
Y12157046D01*
X6897358Y12143716D01*
X7683874Y11186813D02*
Y11266787D01*
X7723861D01*
X7737190Y11253458D01*
Y11226800D01*
X7723861Y11213471D01*
X7683874D01*
X7710532D02*
X7737190Y11186813D01*
X7777177D02*
Y11253458D01*
Y11226800D01*
X7763848D01*
X7790506D01*
X7777177D01*
Y11253458D01*
X7790506Y11266787D01*
X7830494D02*
Y11186813D01*
X7870481D01*
X7883810Y11200142D01*
Y11213471D01*
Y11226800D01*
X7870481Y11240129D01*
X7830494D01*
X7923797Y11253458D02*
Y11240129D01*
X7910468D01*
X7937126D01*
X7923797D01*
Y11200142D01*
X7937126Y11186813D01*
X8206087Y11848845D02*
X8126113D01*
Y11888832D01*
X8139442Y11902161D01*
X8166100D01*
X8179429Y11888832D01*
Y11848845D01*
Y11875503D02*
X8206087Y11902161D01*
Y11942149D02*
X8139442D01*
X8166100D01*
Y11928819D01*
Y11955477D01*
Y11942149D01*
X8139442D01*
X8126113Y11955477D01*
Y11995465D02*
X8206087D01*
Y12035452D01*
X8192758Y12048781D01*
X8179429D01*
X8166100D01*
X8152771Y12035452D01*
Y11995465D01*
X8126113Y12075439D02*
X8206087D01*
Y12115426D01*
X8192758Y12128755D01*
X8179429D01*
X8166100D01*
X8152771Y12115426D01*
Y12075439D01*
X7566055Y9472313D02*
Y9552287D01*
X7606042D01*
X7619371Y9538958D01*
Y9512300D01*
X7606042Y9498971D01*
X7566055D01*
X7592713D02*
X7619371Y9472313D01*
X7699345Y9552287D02*
X7646029D01*
Y9512300D01*
X7672687Y9525629D01*
X7686016D01*
X7699345Y9512300D01*
Y9485642D01*
X7686016Y9472313D01*
X7659358D01*
X7646029Y9485642D01*
X8023255Y10640713D02*
Y10720687D01*
X8063242D01*
X8076571Y10707358D01*
Y10680700D01*
X8063242Y10667371D01*
X8023255D01*
X8049913D02*
X8076571Y10640713D01*
X8143216D02*
Y10720687D01*
X8103229Y10680700D01*
X8156545D01*
X8320387Y11172855D02*
X8240413D01*
Y11212842D01*
X8253742Y11226171D01*
X8280400D01*
X8293729Y11212842D01*
Y11172855D01*
Y11199513D02*
X8320387Y11226171D01*
X8253742Y11252829D02*
X8240413Y11266158D01*
Y11292816D01*
X8253742Y11306145D01*
X8267071D01*
X8280400Y11292816D01*
Y11279487D01*
Y11292816D01*
X8293729Y11306145D01*
X8307058D01*
X8320387Y11292816D01*
Y11266158D01*
X8307058Y11252829D01*
X8625187Y11172855D02*
X8545213D01*
Y11212842D01*
X8558542Y11226171D01*
X8585200D01*
X8598529Y11212842D01*
Y11172855D01*
Y11199513D02*
X8625187Y11226171D01*
Y11306145D02*
Y11252829D01*
X8571871Y11306145D01*
X8558542D01*
X8545213Y11292816D01*
Y11266158D01*
X8558542Y11252829D01*
X8891887Y11198884D02*
X8811913D01*
Y11238871D01*
X8825242Y11252200D01*
X8851900D01*
X8865229Y11238871D01*
Y11198884D01*
Y11225542D02*
X8891887Y11252200D01*
Y11278858D02*
Y11305516D01*
Y11292187D01*
X8811913D01*
X8825242Y11278858D01*
X9140855Y11199513D02*
Y11279487D01*
X9180842D01*
X9194171Y11266158D01*
Y11239500D01*
X9180842Y11226171D01*
X9140855D01*
X9274145Y11266158D02*
X9260816Y11279487D01*
X9234158D01*
X9220829Y11266158D01*
Y11252829D01*
X9234158Y11239500D01*
X9260816D01*
X9274145Y11226171D01*
Y11212842D01*
X9260816Y11199513D01*
X9234158D01*
X9220829Y11212842D01*
X8732568Y10297813D02*
Y10377787D01*
X8759226Y10351129D01*
X8785884Y10377787D01*
Y10297813D01*
X8865858Y10364458D02*
X8852529Y10377787D01*
X8825871D01*
X8812542Y10364458D01*
Y10311142D01*
X8825871Y10297813D01*
X8852529D01*
X8865858Y10311142D01*
X8892516Y10377787D02*
Y10311142D01*
X8905845Y10297813D01*
X8932503D01*
X8945832Y10311142D01*
Y10377787D01*
X7469861Y9018887D02*
X7496519D01*
X7483191D01*
Y8938913D01*
X7469861D01*
X7496519D01*
X7589823Y9005558D02*
X7576494Y9018887D01*
X7549836D01*
X7536507Y9005558D01*
Y8952242D01*
X7549836Y8938913D01*
X7576494D01*
X7589823Y8952242D01*
X7616481Y8938913D02*
X7643139D01*
X7629810D01*
Y9018887D01*
X7616481Y9005558D01*
X6665613Y12090400D02*
Y12037084D01*
X6705599D01*
Y12063742D01*
Y12037084D01*
X6745587D01*
Y12117058D02*
Y12143716D01*
Y12130387D01*
X6665613D01*
X6678941Y12117058D01*
X6983113Y12011684D02*
X7063087D01*
Y12051671D01*
X7049758Y12065000D01*
X6996442D01*
X6983113Y12051671D01*
Y12011684D01*
X7063087Y12091658D02*
Y12118316D01*
Y12104987D01*
X6983113D01*
X6996442Y12091658D01*
X6717041Y11350026D02*
X6703713Y11336697D01*
Y11310039D01*
X6717041Y11296710D01*
X6770358D01*
X6783687Y11310039D01*
Y11336697D01*
X6770358Y11350026D01*
X6783687Y11390013D02*
Y11416671D01*
X6770358Y11430000D01*
X6743699D01*
X6730371Y11416671D01*
Y11390013D01*
X6743699Y11376684D01*
X6770358D01*
X6783687Y11390013D01*
X6730371Y11456658D02*
X6770358D01*
X6783687Y11469987D01*
Y11509974D01*
X6730371D01*
X6717041Y11549962D02*
X6730371D01*
Y11536633D01*
Y11563291D01*
Y11549962D01*
X6770358D01*
X6783687Y11563291D01*
X7199642Y12043748D02*
X7186313Y12030419D01*
Y12003761D01*
X7199642Y11990432D01*
X7252958D01*
X7266287Y12003761D01*
Y12030419D01*
X7252958Y12043748D01*
X7266287Y12070406D02*
Y12097064D01*
Y12083736D01*
X7212971D01*
Y12070406D01*
X7266287Y12137052D02*
X7212971D01*
Y12177039D01*
X7226300Y12190368D01*
X7266287D01*
X8152142Y11637977D02*
X8138813Y11624649D01*
Y11597991D01*
X8152142Y11584661D01*
X8205458D01*
X8218787Y11597991D01*
Y11624649D01*
X8205458Y11637977D01*
X8218787Y11677965D02*
X8152142D01*
X8178800D01*
Y11664636D01*
Y11691294D01*
Y11677965D01*
X8152142D01*
X8138813Y11691294D01*
X8218787Y11744610D02*
X8152142D01*
X8178800D01*
Y11731281D01*
Y11757939D01*
Y11744610D01*
X8152142D01*
X8138813Y11757939D01*
X8836636Y9545925D02*
X8823307Y9559254D01*
X8796649D01*
X8783320Y9545925D01*
Y9492609D01*
X8796649Y9479280D01*
X8823307D01*
X8836636Y9492609D01*
X8863294Y9479280D02*
X8889952D01*
X8876623D01*
Y9559254D01*
X8863294Y9545925D01*
X8929939Y9479280D02*
X8956598D01*
X8943269D01*
Y9559254D01*
X8929939Y9545925D01*
X7186941Y10583249D02*
X7173613Y10569920D01*
Y10543262D01*
X7186941Y10529932D01*
X7240258D01*
X7253587Y10543262D01*
Y10569920D01*
X7240258Y10583249D01*
X7253587Y10609907D02*
Y10636565D01*
Y10623236D01*
X7173613D01*
X7186941Y10609907D01*
Y10676552D02*
X7173613Y10689881D01*
Y10716539D01*
X7186941Y10729868D01*
X7240258D01*
X7253587Y10716539D01*
Y10689881D01*
X7240258Y10676552D01*
X7186941D01*
X7619371Y9665958D02*
X7606042Y9679287D01*
X7579384D01*
X7566055Y9665958D01*
Y9612642D01*
X7579384Y9599313D01*
X7606042D01*
X7619371Y9612642D01*
X7646029D02*
X7659358Y9599313D01*
X7686016D01*
X7699345Y9612642D01*
Y9665958D01*
X7686016Y9679287D01*
X7659358D01*
X7646029Y9665958D01*
Y9652629D01*
X7659358Y9639300D01*
X7699345D01*
X7720342Y10464171D02*
X7707013Y10450842D01*
Y10424184D01*
X7720342Y10410855D01*
X7773658D01*
X7786987Y10424184D01*
Y10450842D01*
X7773658Y10464171D01*
X7707013Y10490829D02*
Y10544145D01*
X7720342D01*
X7773658Y10490829D01*
X7786987D01*
X9613271Y10910558D02*
X9599942Y10923887D01*
X9573284D01*
X9559955Y10910558D01*
Y10857242D01*
X9573284Y10843913D01*
X9599942D01*
X9613271Y10857242D01*
X9693245Y10923887D02*
X9666587Y10910558D01*
X9639929Y10883900D01*
Y10857242D01*
X9653258Y10843913D01*
X9679916D01*
X9693245Y10857242D01*
Y10870571D01*
X9679916Y10883900D01*
X9639929D01*
X9156071Y8942058D02*
X9142742Y8955387D01*
X9116084D01*
X9102755Y8942058D01*
Y8888742D01*
X9116084Y8875413D01*
X9142742D01*
X9156071Y8888742D01*
X9236045Y8955387D02*
X9182729D01*
Y8915400D01*
X9209387Y8928729D01*
X9222716D01*
X9236045Y8915400D01*
Y8888742D01*
X9222716Y8875413D01*
X9196058D01*
X9182729Y8888742D01*
X7974971Y9145258D02*
X7961642Y9158587D01*
X7934984D01*
X7921655Y9145258D01*
Y9091942D01*
X7934984Y9078613D01*
X7961642D01*
X7974971Y9091942D01*
X8041616Y9078613D02*
Y9158587D01*
X8001629Y9118600D01*
X8054945D01*
X8621119Y8996091D02*
Y9049408D01*
X8647777Y9076066D01*
X8674435Y9049408D01*
Y8996091D01*
Y9036079D01*
X8621119D01*
X8754409Y9062737D02*
X8741081Y9076066D01*
X8714423D01*
X8701093Y9062737D01*
Y9009421D01*
X8714423Y8996091D01*
X8741081D01*
X8754409Y9009421D01*
D58*
X8649100Y8955050D02*
G03*
X8636600Y8955050I-6250J0D01*
G01*
D02*
G03*
X8649100Y8955050I6250J0D01*
G01*
D59*
X9453900Y10913400D02*
G03*
X9453900Y10903400I0J-5000D01*
G01*
D02*
G03*
X9453900Y10913400I0J5000D01*
G01*
D02*
G03*
X9453900Y10903400I0J-5000D01*
G01*
X6555800Y10723700D02*
G03*
X6555800Y10743700I0J10000D01*
G01*
D02*
G03*
X6555800Y10723700I0J-10000D01*
G01*
X6653100Y11831400D02*
X6758100D01*
X6653100Y11968400D02*
X6758100D01*
X8532800Y8905100D02*
X8582800D01*
X8282800D02*
X8332800D01*
X8532800Y9205100D02*
X8582800D01*
X8282800D02*
X8332800D01*
X7138600Y10478600D02*
X7288600D01*
X7138600Y10298600D02*
X7288600D01*
X6987601Y8478501D02*
Y8590299D01*
X7109399Y8478501D02*
Y8590299D01*
Y8681701D02*
Y8793499D01*
X6987601Y8681701D02*
Y8793499D01*
X7421900Y8391000D02*
X7741900D01*
X7421900D02*
Y8881000D01*
X7741900D01*
Y8391000D02*
Y8881000D01*
X7776900Y8378000D02*
X7929400D01*
X8079700Y10259100D02*
X8709700D01*
Y9629100D02*
Y10259100D01*
X8079700Y9629100D02*
X8709700D01*
X8079700D02*
Y10259100D01*
X6845663Y9030063D02*
X6971937D01*
X6845663Y9156337D02*
X6971937D01*
X8903900Y9170500D02*
X9053900D01*
X8903900Y8990500D02*
X9053900D01*
X6780400Y9786000D02*
Y10026000D01*
X7240400Y9786000D02*
Y10026000D01*
X8629000Y10599494D02*
Y10685768D01*
X8516000Y10599494D02*
Y10685768D01*
X8908400Y10599494D02*
Y10685768D01*
X8795400Y10599494D02*
Y10685768D01*
X8336900Y10599494D02*
Y10685768D01*
X8223900Y10599494D02*
Y10685768D01*
X8058400Y10483500D02*
X8121400D01*
X8058400Y10598100D02*
X8121400D01*
X7697200Y9925400D02*
X7760200D01*
X7697200Y9810800D02*
X7760200D01*
X6946690Y11547810D02*
X7277310D01*
X6946690Y11312190D02*
X7277310D01*
X8074624Y11591176D02*
Y11758424D01*
X7927376Y11591176D02*
Y11758424D01*
X7440400Y12088300D02*
X7850400D01*
X7440400Y11548300D02*
X7850400D01*
X7209000Y11823700D02*
X7269000D01*
D60*
X7957200Y10344100D02*
G03*
X7957200Y10344100I-20000J0D01*
G01*
D61*
X7120400Y10096000D02*
G03*
X7120400Y10096000I-12500J0D01*
G01*
X7375400Y11985800D02*
G03*
X7375400Y11985800I-12500J0D01*
G01*
D62*
X7078900Y11969900D02*
G03*
X7078900Y11969900I-5000J0D01*
G01*
X9096400Y10668400D02*
Y10718400D01*
Y10668400D02*
Y10718400D01*
X9496400Y10668400D02*
Y10718400D01*
Y10668400D02*
Y10718400D01*
X4635800Y12373700D02*
X6495800D01*
X4635800Y8293700D02*
Y12373700D01*
Y8293700D02*
X6495800D01*
Y12373700D01*
%TF.MD5,c844cf92c705fe837e2456cfe7ecee08*%
M02*
