%TF.GenerationSoftware,Altium Limited,Altium Designer,26.9.1 (10)*%
G04 Layer_Physical_Order=2*
G04 Layer_Color=16711680*
G04 Board_Origin=0|0*
%FSLAX45Y45*%
%MOMM*%
%TF.SameCoordinates,B17F3394-68FD-4429-B3DD-F48AF8CE0512*%
%TF.FilePolarity,Positive*%
%TF.FileFunction,Copper,L2,Bot,Signal*%
%TF.Part,Single*%
G01*
G75*
%TA.AperFunction,Conductor*%
%ADD42C,0.30000*%
%ADD44C,0.20000*%
%ADD46C,0.40000*%
%ADD48C,0.25000*%
%TA.AperFunction,ComponentPad*%
%ADD51C,2.77500*%
%TA.AperFunction,SMDPad,CuDef*%
%ADD52C,1.00000*%
%TA.AperFunction,ComponentPad*%
%ADD53C,4.39500*%
%TA.AperFunction,ViaPad*%
%ADD54C,1.27000*%
%ADD55C,1.40000*%
%ADD56C,0.80000*%
%ADD57C,0.65000*%
G36*
X9893300Y10338051D02*
X9882300Y10333495D01*
X9872781Y10343014D01*
X9856819Y10352229D01*
X9839016Y10357000D01*
X9820584D01*
X9802781Y10352229D01*
X9786819Y10343014D01*
X9773786Y10329981D01*
X9764571Y10314019D01*
X9759800Y10296216D01*
Y10277784D01*
X9764571Y10259981D01*
X9773786Y10244019D01*
X9786819Y10230986D01*
X9790118Y10229081D01*
Y10216380D01*
X9783769Y10212714D01*
X9770736Y10199681D01*
X9761520Y10183719D01*
X9756750Y10165916D01*
Y10147484D01*
X9761520Y10129681D01*
X9770736Y10113719D01*
X9783769Y10100686D01*
X9785721Y10099559D01*
X9785050Y10087245D01*
X9773786Y10075981D01*
X9764571Y10060019D01*
X9759800Y10042216D01*
Y10023784D01*
X9764571Y10005981D01*
X9773786Y9990019D01*
X9784305Y9979500D01*
X9784536Y9966932D01*
X9783503Y9966335D01*
X9769465Y9952297D01*
X9759538Y9935103D01*
X9755143Y9918700D01*
X9829800D01*
Y9906000D01*
X9842500D01*
Y9831343D01*
X9858903Y9835738D01*
X9876097Y9845665D01*
X9882300Y9851868D01*
X9893300Y9847312D01*
Y8260265D01*
X9848126Y8215091D01*
X9846317Y8216900D01*
X2641600D01*
Y12446000D01*
Y12471400D01*
X9893300D01*
Y10338051D01*
D02*
G37*
%LPC*%
G36*
X5789413Y11623450D02*
X5742187D01*
X5695867Y11614236D01*
X5652236Y11596163D01*
X5612968Y11569926D01*
X5579574Y11536531D01*
X5553336Y11497264D01*
X5535264Y11453632D01*
X5526050Y11407313D01*
Y11360086D01*
X5535264Y11313767D01*
X5553336Y11270136D01*
X5579574Y11230868D01*
X5612968Y11197474D01*
X5652236Y11171236D01*
X5695867Y11153164D01*
X5742187Y11143950D01*
X5789413D01*
X5835733Y11153164D01*
X5879364Y11171236D01*
X5918632Y11197474D01*
X5952026Y11230868D01*
X5978264Y11270136D01*
X5996336Y11313767D01*
X6005550Y11360086D01*
Y11407313D01*
X5996336Y11453632D01*
X5978264Y11497264D01*
X5952026Y11536531D01*
X5918632Y11569926D01*
X5879364Y11596163D01*
X5835733Y11614236D01*
X5789413Y11623450D01*
D02*
G37*
G36*
X8774935Y10969300D02*
X8751065D01*
X8729013Y10960166D01*
X8712134Y10943287D01*
X8703000Y10921235D01*
Y10897365D01*
X8712134Y10875313D01*
X8729013Y10858434D01*
X8751065Y10849300D01*
X8774935D01*
X8775785Y10849652D01*
X8803650Y10821788D01*
X8803298Y10820937D01*
Y10797068D01*
X8812432Y10775015D01*
X8829310Y10758137D01*
X8851363Y10749003D01*
X8875232D01*
X8897285Y10758137D01*
X8914163Y10775015D01*
X8923297Y10797068D01*
Y10820937D01*
X8914163Y10842990D01*
X8897285Y10859868D01*
X8875232Y10869002D01*
X8851363D01*
X8850512Y10868650D01*
X8822648Y10896515D01*
X8823000Y10897365D01*
Y10921235D01*
X8813866Y10943287D01*
X8796987Y10960166D01*
X8774935Y10969300D01*
D02*
G37*
G36*
X6231436Y10892450D02*
X6200165D01*
X6169494Y10886349D01*
X6140604Y10874382D01*
X6114603Y10857009D01*
X6092491Y10834897D01*
X6075118Y10808896D01*
X6063151Y10780006D01*
X6057050Y10749335D01*
Y10718064D01*
X6063151Y10687394D01*
X6075118Y10658504D01*
X6092491Y10632503D01*
X6114603Y10610391D01*
X6140604Y10593017D01*
X6169494Y10581051D01*
X6200165Y10574950D01*
X6231436D01*
X6262106Y10581051D01*
X6290996Y10593017D01*
X6316997Y10610391D01*
X6339109Y10632503D01*
X6356483Y10658504D01*
X6368449Y10687394D01*
X6374550Y10718064D01*
Y10749335D01*
X6368449Y10780006D01*
X6356483Y10808896D01*
X6339109Y10834897D01*
X6316997Y10857009D01*
X6290996Y10874382D01*
X6262106Y10886349D01*
X6231436Y10892450D01*
D02*
G37*
G36*
X5431436D02*
X5400165D01*
X5369494Y10886349D01*
X5340604Y10874382D01*
X5314603Y10857009D01*
X5292491Y10834897D01*
X5275118Y10808896D01*
X5263151Y10780006D01*
X5257050Y10749335D01*
Y10718064D01*
X5263151Y10687394D01*
X5275118Y10658504D01*
X5292491Y10632503D01*
X5314603Y10610391D01*
X5340604Y10593017D01*
X5369494Y10581051D01*
X5400165Y10574950D01*
X5431436D01*
X5462106Y10581051D01*
X5490996Y10593017D01*
X5516997Y10610391D01*
X5539109Y10632503D01*
X5556483Y10658504D01*
X5568449Y10687394D01*
X5574550Y10718064D01*
Y10749335D01*
X5568449Y10780006D01*
X5556483Y10808896D01*
X5539109Y10834897D01*
X5516997Y10857009D01*
X5490996Y10874382D01*
X5462106Y10886349D01*
X5431436Y10892450D01*
D02*
G37*
G36*
X5831968Y10697850D02*
X5828500D01*
Y10546400D01*
X5979950D01*
Y10549867D01*
X5973642Y10581581D01*
X5961268Y10611454D01*
X5943304Y10638339D01*
X5920440Y10661203D01*
X5893554Y10679168D01*
X5863681Y10691542D01*
X5831968Y10697850D01*
D02*
G37*
G36*
X5803100D02*
X5799633D01*
X5767919Y10691542D01*
X5738046Y10679168D01*
X5711161Y10661203D01*
X5688296Y10638339D01*
X5670332Y10611454D01*
X5657958Y10581581D01*
X5651650Y10549867D01*
Y10546400D01*
X5803100D01*
Y10697850D01*
D02*
G37*
G36*
X8444735Y10664500D02*
X8420865D01*
X8398813Y10655366D01*
X8381934Y10638487D01*
X8372800Y10616435D01*
Y10592565D01*
X8381934Y10570513D01*
X8398813Y10553634D01*
X8420865Y10544500D01*
X8444735D01*
X8448134Y10545908D01*
X8487371Y10506671D01*
X8497295Y10500041D01*
X8509000Y10497712D01*
X8724930D01*
X8753800Y10468842D01*
Y10452865D01*
X8762934Y10430813D01*
X8779813Y10413934D01*
X8801865Y10404800D01*
X8825735D01*
X8847787Y10413934D01*
X8864666Y10430813D01*
X8873800Y10452865D01*
Y10476735D01*
X8864666Y10498787D01*
X8847787Y10515666D01*
X8825735Y10524800D01*
X8801865D01*
X8789486Y10519672D01*
X8759229Y10549929D01*
X8749305Y10556559D01*
X8737600Y10558888D01*
X8737599Y10558888D01*
X8521670D01*
X8491392Y10589166D01*
X8492800Y10592565D01*
Y10616435D01*
X8483666Y10638487D01*
X8466787Y10655366D01*
X8444735Y10664500D01*
D02*
G37*
G36*
X5979950Y10521000D02*
X5828500D01*
Y10369550D01*
X5831968D01*
X5863681Y10375858D01*
X5893554Y10388232D01*
X5920440Y10406196D01*
X5943304Y10429060D01*
X5961268Y10455946D01*
X5973642Y10485819D01*
X5979950Y10517532D01*
Y10521000D01*
D02*
G37*
G36*
X5803100D02*
X5651650D01*
Y10517532D01*
X5657958Y10485819D01*
X5670332Y10455946D01*
X5688296Y10429060D01*
X5711161Y10406196D01*
X5738046Y10388232D01*
X5767919Y10375858D01*
X5799633Y10369550D01*
X5803100D01*
Y10521000D01*
D02*
G37*
G36*
X6231436Y10492450D02*
X6200165D01*
X6169494Y10486349D01*
X6140604Y10474382D01*
X6114603Y10457009D01*
X6092491Y10434897D01*
X6075118Y10408896D01*
X6063151Y10380006D01*
X6057050Y10349335D01*
Y10318064D01*
X6063151Y10287394D01*
X6075118Y10258504D01*
X6092491Y10232503D01*
X6114603Y10210391D01*
X6140604Y10193017D01*
X6169494Y10181051D01*
X6200165Y10174950D01*
X6231436D01*
X6262106Y10181051D01*
X6290996Y10193017D01*
X6316997Y10210391D01*
X6339109Y10232503D01*
X6356483Y10258504D01*
X6368449Y10287394D01*
X6374550Y10318064D01*
Y10349335D01*
X6368449Y10380006D01*
X6356483Y10408896D01*
X6339109Y10434897D01*
X6316997Y10457009D01*
X6290996Y10474382D01*
X6262106Y10486349D01*
X6231436Y10492450D01*
D02*
G37*
G36*
X5431436D02*
X5400165D01*
X5369494Y10486349D01*
X5340604Y10474382D01*
X5314603Y10457009D01*
X5292491Y10434897D01*
X5275118Y10408896D01*
X5263151Y10380006D01*
X5257050Y10349335D01*
Y10318064D01*
X5263151Y10287394D01*
X5275118Y10258504D01*
X5292491Y10232503D01*
X5314603Y10210391D01*
X5340604Y10193017D01*
X5369494Y10181051D01*
X5400165Y10174950D01*
X5431436D01*
X5462106Y10181051D01*
X5490996Y10193017D01*
X5516997Y10210391D01*
X5539109Y10232503D01*
X5556483Y10258504D01*
X5568449Y10287394D01*
X5574550Y10318064D01*
Y10349335D01*
X5568449Y10380006D01*
X5556483Y10408896D01*
X5539109Y10434897D01*
X5516997Y10457009D01*
X5490996Y10474382D01*
X5462106Y10486349D01*
X5431436Y10492450D01*
D02*
G37*
G36*
X5831968Y10297850D02*
X5828500D01*
Y10146400D01*
X5979950D01*
Y10149867D01*
X5973642Y10181581D01*
X5961268Y10211454D01*
X5943304Y10238339D01*
X5920440Y10261204D01*
X5893554Y10279168D01*
X5863681Y10291542D01*
X5831968Y10297850D01*
D02*
G37*
G36*
X5803100D02*
X5799633D01*
X5767919Y10291542D01*
X5738046Y10279168D01*
X5711161Y10261204D01*
X5688296Y10238339D01*
X5670332Y10211454D01*
X5657958Y10181581D01*
X5651650Y10149867D01*
Y10146400D01*
X5803100D01*
Y10297850D01*
D02*
G37*
G36*
X5979950Y10121000D02*
X5828500D01*
Y9969550D01*
X5831968D01*
X5863681Y9975858D01*
X5893554Y9988232D01*
X5920440Y10006196D01*
X5943304Y10029060D01*
X5961268Y10055946D01*
X5973642Y10085819D01*
X5979950Y10117532D01*
Y10121000D01*
D02*
G37*
G36*
X5803100D02*
X5651650D01*
Y10117532D01*
X5657958Y10085819D01*
X5670332Y10055946D01*
X5688296Y10029060D01*
X5711161Y10006196D01*
X5738046Y9988232D01*
X5767919Y9975858D01*
X5799633Y9969550D01*
X5803100D01*
Y10121000D01*
D02*
G37*
G36*
X6231967Y10097850D02*
X6228500D01*
Y9946400D01*
X6379950D01*
Y9949867D01*
X6373642Y9981581D01*
X6361268Y10011454D01*
X6343304Y10038340D01*
X6320440Y10061204D01*
X6293554Y10079168D01*
X6263681Y10091542D01*
X6231967Y10097850D01*
D02*
G37*
G36*
X6203100D02*
X6199633D01*
X6167919Y10091542D01*
X6138046Y10079168D01*
X6111160Y10061204D01*
X6088296Y10038340D01*
X6070332Y10011454D01*
X6057958Y9981581D01*
X6051650Y9949867D01*
Y9946400D01*
X6203100D01*
Y10097850D01*
D02*
G37*
G36*
X9817100Y9893300D02*
X9755143D01*
X9759538Y9876897D01*
X9769465Y9859703D01*
X9783503Y9845665D01*
X9800697Y9835738D01*
X9817100Y9831343D01*
Y9893300D01*
D02*
G37*
G36*
X5431436Y10092450D02*
X5400165D01*
X5369494Y10086349D01*
X5340604Y10074382D01*
X5314603Y10057009D01*
X5292491Y10034897D01*
X5275118Y10008896D01*
X5263151Y9980006D01*
X5257050Y9949335D01*
Y9918064D01*
X5263151Y9887394D01*
X5275118Y9858504D01*
X5292491Y9832503D01*
X5314603Y9810391D01*
X5340604Y9793017D01*
X5369494Y9781051D01*
X5400165Y9774950D01*
X5431436D01*
X5462106Y9781051D01*
X5490996Y9793017D01*
X5516997Y9810391D01*
X5539109Y9832503D01*
X5556483Y9858504D01*
X5568449Y9887394D01*
X5574550Y9918064D01*
Y9949335D01*
X5568449Y9980006D01*
X5556483Y10008896D01*
X5539109Y10034897D01*
X5516997Y10057009D01*
X5490996Y10074382D01*
X5462106Y10086349D01*
X5431436Y10092450D01*
D02*
G37*
G36*
X6379950Y9921000D02*
X6228500D01*
Y9769550D01*
X6231967D01*
X6263681Y9775858D01*
X6293554Y9788232D01*
X6320440Y9806196D01*
X6343304Y9829060D01*
X6361268Y9855946D01*
X6373642Y9885819D01*
X6379950Y9917533D01*
Y9921000D01*
D02*
G37*
G36*
X6203100D02*
X6051650D01*
Y9917533D01*
X6057958Y9885819D01*
X6070332Y9855946D01*
X6088296Y9829060D01*
X6111160Y9806196D01*
X6138046Y9788232D01*
X6167919Y9775858D01*
X6199633Y9769550D01*
X6203100D01*
Y9921000D01*
D02*
G37*
G36*
X9447949Y10453200D02*
X9424251D01*
X9401361Y10447066D01*
X9380839Y10435218D01*
X9364082Y10418461D01*
X9352234Y10397939D01*
X9346100Y10375049D01*
Y10351351D01*
X9352234Y10328461D01*
X9359009Y10316726D01*
X9343762Y10301479D01*
X9334921Y10288247D01*
X9331816Y10272640D01*
X9331816Y10272639D01*
Y9922876D01*
X9317339Y9914518D01*
X9300582Y9897761D01*
X9288734Y9877239D01*
X9282600Y9854349D01*
Y9830651D01*
X9288734Y9807761D01*
X9300582Y9787239D01*
X9317339Y9770482D01*
X9337861Y9758634D01*
X9360751Y9752500D01*
X9384449D01*
X9407339Y9758634D01*
X9427861Y9770482D01*
X9444618Y9787239D01*
X9456466Y9807761D01*
X9462600Y9830651D01*
Y9854349D01*
X9456466Y9877239D01*
X9444618Y9897761D01*
X9427861Y9914518D01*
X9413384Y9922876D01*
Y10255747D01*
X9430837Y10273200D01*
X9447949D01*
X9470839Y10279334D01*
X9491361Y10291182D01*
X9508118Y10307939D01*
X9519966Y10328461D01*
X9526100Y10351351D01*
Y10375049D01*
X9519966Y10397939D01*
X9508118Y10418461D01*
X9491361Y10435218D01*
X9470839Y10447066D01*
X9447949Y10453200D01*
D02*
G37*
G36*
X8287121Y9407623D02*
X8263251D01*
X8241199Y9398488D01*
X8224320Y9381610D01*
X8215186Y9359557D01*
Y9335688D01*
X8224320Y9313635D01*
X8241199Y9296757D01*
X8263251Y9287623D01*
X8287121D01*
X8309173Y9296757D01*
X8326051Y9313635D01*
X8326229Y9314063D01*
X8521282D01*
X8521634Y9313213D01*
X8538513Y9296334D01*
X8560565Y9287200D01*
X8584435D01*
X8606487Y9296334D01*
X8623366Y9313213D01*
X8632500Y9335265D01*
Y9359135D01*
X8623366Y9381187D01*
X8606487Y9398066D01*
X8584435Y9407200D01*
X8560565D01*
X8538513Y9398066D01*
X8521634Y9381187D01*
X8521282Y9380337D01*
X8326579D01*
X8326051Y9381610D01*
X8309173Y9398488D01*
X8287121Y9407623D01*
D02*
G37*
G36*
X5789413Y9523450D02*
X5742187D01*
X5695867Y9514236D01*
X5652236Y9496164D01*
X5612968Y9469926D01*
X5579574Y9436532D01*
X5553336Y9397264D01*
X5535264Y9353633D01*
X5526050Y9307313D01*
Y9260087D01*
X5535264Y9213767D01*
X5553336Y9170136D01*
X5579574Y9130868D01*
X5612968Y9097474D01*
X5652236Y9071236D01*
X5695867Y9053164D01*
X5742187Y9043950D01*
X5789413D01*
X5835733Y9053164D01*
X5879364Y9071236D01*
X5918632Y9097474D01*
X5952026Y9130868D01*
X5978264Y9170136D01*
X5996336Y9213767D01*
X6005550Y9260087D01*
Y9307313D01*
X5996336Y9353633D01*
X5978264Y9397264D01*
X5952026Y9436532D01*
X5918632Y9469926D01*
X5879364Y9496164D01*
X5835733Y9514236D01*
X5789413Y9523450D01*
D02*
G37*
G36*
X8368449Y8789500D02*
X8344751D01*
X8321861Y8783366D01*
X8301339Y8771518D01*
X8284582Y8754761D01*
X8276224Y8740284D01*
X8093976D01*
X8085618Y8754761D01*
X8068861Y8771518D01*
X8048338Y8783366D01*
X8025449Y8789500D01*
X8001751D01*
X7978861Y8783366D01*
X7958339Y8771518D01*
X7941582Y8754761D01*
X7929733Y8734239D01*
X7923600Y8711349D01*
Y8687651D01*
X7929733Y8664761D01*
X7941582Y8644239D01*
X7958339Y8627482D01*
X7978861Y8615634D01*
X8001751Y8609500D01*
X8025449D01*
X8048338Y8615634D01*
X8068861Y8627482D01*
X8085618Y8644239D01*
X8093976Y8658716D01*
X8276224D01*
X8284582Y8644239D01*
X8301339Y8627482D01*
X8321861Y8615634D01*
X8344751Y8609500D01*
X8368449D01*
X8391339Y8615634D01*
X8411861Y8627482D01*
X8428618Y8644239D01*
X8440466Y8664761D01*
X8446600Y8687651D01*
Y8711349D01*
X8440466Y8734239D01*
X8428618Y8754761D01*
X8411861Y8771518D01*
X8391339Y8783366D01*
X8368449Y8789500D01*
D02*
G37*
G36*
X6882635Y8988100D02*
X6858765D01*
X6836713Y8978966D01*
X6819834Y8962087D01*
X6810700Y8940035D01*
Y8916165D01*
X6811275Y8914777D01*
X6769266Y8872768D01*
X6761531Y8861190D01*
X6758814Y8847534D01*
Y8443034D01*
X6761531Y8429378D01*
X6769266Y8417801D01*
X6812994Y8374073D01*
X6810700Y8368535D01*
Y8344665D01*
X6819834Y8322613D01*
X6836713Y8305734D01*
X6858765Y8296600D01*
X6882635D01*
X6904687Y8305734D01*
X6921566Y8322613D01*
X6930700Y8344665D01*
Y8368535D01*
X6921566Y8390587D01*
X6904687Y8407466D01*
X6882635Y8416600D01*
X6871402D01*
X6830186Y8457816D01*
Y8832752D01*
X6865533Y8868100D01*
X6882635D01*
X6904687Y8877234D01*
X6921566Y8894113D01*
X6930700Y8916165D01*
Y8940035D01*
X6921566Y8962087D01*
X6904687Y8978966D01*
X6882635Y8988100D01*
D02*
G37*
%LPD*%
D42*
X6870700Y8923734D02*
Y8928100D01*
X6794500Y8847534D02*
X6870700Y8923734D01*
X6794500Y8443034D02*
Y8847534D01*
Y8443034D02*
X6870700Y8366834D01*
Y8356600D02*
Y8366834D01*
D44*
X8509000Y10528300D02*
X8737600D01*
X8432800Y10604500D02*
X8509000Y10528300D01*
X8737600D02*
X8801100Y10464800D01*
X8813800D01*
D46*
X9372600Y9842500D02*
Y10272640D01*
X9436100Y10336140D01*
Y10363200D01*
X8013600Y8699500D02*
X8356600D01*
D48*
X8763000Y10909300D02*
X8863297Y10809003D01*
X8275186Y9347623D02*
X8275609Y9347200D01*
X8572500D01*
D51*
X6215800Y10733700D02*
D03*
Y10333700D02*
D03*
Y9933700D02*
D03*
X5815800Y10133700D02*
D03*
Y10533700D02*
D03*
X5415800Y9933700D02*
D03*
Y10333700D02*
D03*
Y10733700D02*
D03*
D52*
X9829800Y9906000D02*
D03*
Y10033000D02*
D03*
X9826750Y10156700D02*
D03*
X9829800Y10287000D02*
D03*
D53*
X5765800Y9283700D02*
D03*
Y11383700D02*
D03*
D54*
X6972300Y11658600D02*
D03*
X7112000Y8966200D02*
D03*
X6642100D02*
D03*
X7556500Y9867900D02*
D03*
X7124700Y9690100D02*
D03*
X7899400Y10464800D02*
D03*
X9652000Y10553700D02*
D03*
X8826500Y8852324D02*
D03*
X6972300Y11150600D02*
D03*
X6973234Y10932980D02*
D03*
Y10704380D02*
D03*
D55*
X9436100Y10363200D02*
D03*
X8013600Y8699500D02*
D03*
X9372600Y9842500D02*
D03*
X8356600Y8699500D02*
D03*
D56*
X8026400Y8534400D02*
D03*
X9245600Y10896600D02*
D03*
X8624150Y9233750D02*
D03*
X8098952Y9014142D02*
D03*
X8484450Y8827350D02*
D03*
X6642950Y8395550D02*
D03*
X7049350Y8408250D02*
D03*
X8763000Y10909300D02*
D03*
X8863297Y10809003D02*
D03*
X6870700Y8928100D02*
D03*
Y8356600D02*
D03*
X8275186Y9347623D02*
D03*
X8572500Y9347200D02*
D03*
X8813800Y10464800D02*
D03*
X8432800Y10604500D02*
D03*
D57*
X7645400Y11988800D02*
D03*
Y11760200D02*
D03*
Y11874500D02*
D03*
Y11658600D02*
D03*
%TF.MD5,b7c65af9ef6dab20f374a9ae2f69edec*%
M02*
