%TF.GenerationSoftware,Altium Limited,Altium Designer,26.9.1 (10)*%
G04 Layer_Physical_Order=1*
G04 Layer_Color=255*
G04 Board_Origin=0|0*
%FSLAX45Y45*%
%MOMM*%
%TF.SameCoordinates,5EDF707E-313F-4B3F-A8AA-884A6FACDAFB*%
%TF.FilePolarity,Positive*%
%TF.FileFunction,Copper,L1,Top,Signal*%
%TF.Part,Single*%
G01*
G75*
%TA.AperFunction,SMDPad,CuDef*%
%ADD10R,1.52400X1.01600*%
%ADD11R,1.01600X1.52400*%
%ADD12O,0.25000X0.80000*%
%ADD13R,0.75964X0.67248*%
%ADD14R,4.00000X1.80000*%
%ADD15O,0.80000X0.25000*%
%ADD16R,0.62000X0.66000*%
%ADD17R,2.30000X2.30000*%
%ADD18R,0.66000X0.62000*%
%ADD19R,0.85000X0.35000*%
%ADD20R,0.67248X0.71535*%
%ADD21R,2.60000X2.70000*%
%TA.AperFunction,BGAPad,CuDef*%
%ADD22C,0.78700*%
%TA.AperFunction,SMDPad,CuDef*%
%ADD23R,0.70000X1.30000*%
%ADD24R,0.35000X0.80000*%
%ADD25R,0.50000X0.50000*%
%ADD26R,1.30000X0.70000*%
%ADD27R,1.30574X1.75822*%
%ADD28R,1.15776X1.36213*%
%ADD29R,1.45620X1.25464*%
%ADD30R,0.60000X1.25000*%
%ADD31R,0.35000X0.60000*%
%ADD32R,3.50000X3.50000*%
%ADD33R,2.80000X3.00000*%
%ADD34R,1.40000X1.60000*%
%ADD35R,0.61535X0.57247*%
%ADD36R,1.20000X2.80000*%
%ADD37R,0.50000X0.60000*%
%ADD38R,2.13000X2.08000*%
%TA.AperFunction,Conductor*%
%ADD39C,0.25000*%
%ADD40C,0.75000*%
%ADD41C,0.30000*%
%ADD42C,0.20000*%
%ADD43C,0.15000*%
%ADD44C,0.45000*%
%ADD45C,0.50000*%
%ADD46C,0.65000*%
%ADD47C,0.35000*%
%ADD48C,0.55000*%
%ADD49C,0.25400*%
%TA.AperFunction,ComponentPad*%
%ADD50C,1.47800*%
%ADD51C,1.50000*%
%ADD52R,1.47800X1.47800*%
%ADD53C,1.25000*%
%ADD54C,0.82500*%
%ADD55C,0.99100*%
%TA.AperFunction,ViaPad*%
%ADD56C,0.55000*%
%ADD57C,0.35000*%
%ADD58C,0.50000*%
G36*
X13650000Y12460000D02*
Y12290000D01*
Y12020858D01*
X13639999Y12010000D01*
X13639999D01*
X13636073Y11996073D01*
X13560001Y11920000D01*
X11300000D01*
X11260000Y11960000D01*
Y12105000D01*
X11135000Y12230000D01*
X8680000D01*
X8650000Y12200000D01*
Y12016911D01*
X8579976D01*
Y11903600D01*
Y11790289D01*
X8650000D01*
Y11724811D01*
X8579976D01*
Y11611500D01*
Y11498189D01*
X8650000D01*
Y11407311D01*
X8579976D01*
Y11294000D01*
Y11180689D01*
X8639592D01*
X8645689Y11165689D01*
X8530000Y11050000D01*
Y11030523D01*
X8504887D01*
Y10976500D01*
Y10922476D01*
X8530000D01*
Y10850000D01*
X8440000Y10760000D01*
Y10330000D01*
X8480000Y10290000D01*
X8556505D01*
X8569600Y10285400D01*
Y10132700D01*
X8655000D01*
Y10120000D01*
X8667700D01*
Y9954600D01*
X8730000D01*
Y9930000D01*
X8790000Y9870000D01*
X9640000D01*
X9770000Y9740000D01*
Y9560000D01*
X9710000Y9500000D01*
X9310000D01*
X9175000Y9365000D01*
Y9160310D01*
X9172190D01*
Y9005553D01*
X9161790D01*
Y8930122D01*
X9260000D01*
Y8904722D01*
X9161790D01*
Y8849423D01*
X9146790Y8843210D01*
X9070000Y8920000D01*
Y9420000D01*
X8990000Y9500000D01*
X8450000D01*
X8290000Y9340000D01*
Y8230000D01*
X8400000Y8120000D01*
X9060000D01*
X9109301Y8070700D01*
Y7150699D01*
X9190000Y7070000D01*
X10490000D01*
Y6790000D01*
X8070000D01*
X8000000Y6860000D01*
Y12450000D01*
X8050000Y12500000D01*
X13610001D01*
X13650000Y12460000D01*
D02*
G37*
G36*
X9390000Y11760000D02*
X9716699D01*
X9718673Y11745000D01*
X9707972Y11742132D01*
X9685328Y11729060D01*
X9666840Y11710571D01*
X9653767Y11687928D01*
X9647000Y11662673D01*
Y11662301D01*
X9746300D01*
X9845600D01*
Y11662673D01*
X9838833Y11687928D01*
X9825760Y11710571D01*
X9807272Y11729060D01*
X9784628Y11742132D01*
X9773927Y11745000D01*
X9775901Y11760000D01*
X9970699D01*
X9972673Y11745000D01*
X9961972Y11742132D01*
X9939328Y11729060D01*
X9920840Y11710571D01*
X9907767Y11687928D01*
X9901000Y11662673D01*
Y11662301D01*
X10000300D01*
Y11649601D01*
X10013000D01*
Y11550300D01*
X10013373D01*
X10038628Y11557067D01*
X10061272Y11570140D01*
X10079760Y11588628D01*
X10085000Y11597705D01*
X10100000Y11593685D01*
Y11290000D01*
X10514600Y10875400D01*
X10508387Y10860400D01*
X10392701D01*
Y10719999D01*
X10367301D01*
Y10860400D01*
X10239600D01*
Y10860400D01*
X10239586Y10860400D01*
X10224766Y10860000D01*
X9350000D01*
X9319636Y10829636D01*
X9314755Y10830028D01*
X9300570Y10833507D01*
X9300569Y10833507D01*
X9300569Y10833507D01*
X9229983D01*
Y10740000D01*
X9204583D01*
Y10833507D01*
X9133994D01*
X9133994Y10833507D01*
Y10833507D01*
X9121065Y10838935D01*
X9030000Y10930000D01*
X8917507D01*
Y10963800D01*
X8854125D01*
Y10976500D01*
X8841425D01*
Y11035524D01*
X8810000D01*
Y11150000D01*
X8793169Y11166831D01*
X8798909Y11180689D01*
X8829824D01*
Y11294000D01*
Y11407311D01*
X8760000D01*
Y11498189D01*
X8829824D01*
Y11611500D01*
Y11724811D01*
X8760000D01*
Y11790289D01*
X8829824D01*
Y11903600D01*
Y12016911D01*
X8786509D01*
X8780769Y12030769D01*
X8810000Y12060000D01*
X9090000D01*
X9390000Y11760000D01*
D02*
G37*
G36*
X9508993Y9322700D02*
X9572375D01*
Y9310000D01*
X9585075D01*
Y9250976D01*
X9620000D01*
Y9160000D01*
X9597471Y9137471D01*
X9590400Y9140400D01*
Y9140400D01*
X9512700D01*
Y9080000D01*
X9500000D01*
Y9067300D01*
X9409600D01*
Y9040000D01*
X9360000D01*
X9358210Y9040742D01*
Y9069879D01*
X9260000D01*
Y9082579D01*
X9247300D01*
Y9170710D01*
X9210308D01*
X9204568Y9184568D01*
X9370000Y9350000D01*
X9508993D01*
Y9322700D01*
D02*
G37*
G36*
X10677118Y8342882D02*
X10671378Y8329024D01*
X10660326D01*
Y8270000D01*
X10634926D01*
Y8329024D01*
X10590976D01*
X10580000Y8340000D01*
X10460000D01*
X10357100Y8442900D01*
X10362840Y8456758D01*
X10384700D01*
X10399488Y8459699D01*
X10412024Y8468076D01*
X10420401Y8480612D01*
X10420816Y8482700D01*
X10357199D01*
Y8508100D01*
X10423309D01*
X10430512Y8520000D01*
X10500000D01*
X10677118Y8342882D01*
D02*
G37*
G36*
X9569600Y8303700D02*
X9660000D01*
X9750400D01*
Y8318387D01*
X9765400Y8324600D01*
X9939742Y8150258D01*
X9934002Y8136400D01*
X9888600D01*
Y8092701D01*
X9947000D01*
Y8080001D01*
X9959700D01*
Y8023600D01*
X9996400D01*
X10029583Y7990417D01*
X10021086Y7977700D01*
X10012700Y7981174D01*
Y7952700D01*
X10041174D01*
X10037700Y7961086D01*
X10050417Y7969583D01*
X10170000Y7850000D01*
Y7551595D01*
X10155000Y7547576D01*
X10150340Y7555647D01*
X10131647Y7574340D01*
X10108753Y7587558D01*
X10083218Y7594400D01*
X10082699D01*
Y7493999D01*
X10069999D01*
Y7481299D01*
X9969600D01*
Y7480782D01*
X9976442Y7455247D01*
X9989660Y7432353D01*
X10007013Y7415000D01*
X10006279Y7409193D01*
X10002013Y7400000D01*
X9670000D01*
X9260000Y7810000D01*
Y8209600D01*
X9317300D01*
Y8270000D01*
X9330000D01*
Y8282700D01*
X9420400D01*
Y8330000D01*
X9569600D01*
Y8303700D01*
D02*
G37*
G36*
X10840000Y8100000D02*
Y7700000D01*
X10941392Y7598608D01*
X10937791Y7589556D01*
X10934037Y7584750D01*
X10910120D01*
X10886322Y7574892D01*
X10868108Y7556678D01*
X10858250Y7532880D01*
Y7515413D01*
X10843250Y7509200D01*
X10682450Y7670000D01*
X10680000D01*
Y7999600D01*
X10717301D01*
Y8090000D01*
X10730001D01*
Y8102700D01*
X10790400D01*
Y8130002D01*
X10804258Y8135742D01*
X10840000Y8100000D01*
D02*
G37*
%LPC*%
G36*
X8554576Y12016911D02*
X8476589D01*
Y11916300D01*
X8554576D01*
Y12016911D01*
D02*
G37*
G36*
Y11890900D02*
X8476589D01*
Y11790289D01*
X8554576D01*
Y11890900D01*
D02*
G37*
G36*
Y11724811D02*
X8476589D01*
Y11624200D01*
X8554576D01*
Y11724811D01*
D02*
G37*
G36*
Y11598800D02*
X8476589D01*
Y11498189D01*
X8554576D01*
Y11598800D01*
D02*
G37*
G36*
Y11407311D02*
X8476589D01*
Y11306700D01*
X8554576D01*
Y11407311D01*
D02*
G37*
G36*
Y11281300D02*
X8476589D01*
Y11180689D01*
X8554576D01*
Y11281300D01*
D02*
G37*
G36*
X8479487Y11030523D02*
X8436020D01*
Y10989200D01*
X8479487D01*
Y11030523D01*
D02*
G37*
G36*
Y10963800D02*
X8436020D01*
Y10922476D01*
X8479487D01*
Y10963800D01*
D02*
G37*
G36*
X8642300Y10107300D02*
X8569600D01*
Y9954600D01*
X8642300D01*
Y10107300D01*
D02*
G37*
G36*
X8933211Y12016911D02*
X8855224D01*
Y11916300D01*
X8933211D01*
Y12016911D01*
D02*
G37*
G36*
Y11890900D02*
X8855224D01*
Y11790289D01*
X8933211D01*
Y11890900D01*
D02*
G37*
G36*
Y11724811D02*
X8855224D01*
Y11624200D01*
X8933211D01*
Y11724811D01*
D02*
G37*
G36*
X9987600Y11636901D02*
X9901000D01*
Y11636527D01*
X9907767Y11611271D01*
X9920840Y11588628D01*
X9939328Y11570140D01*
X9961972Y11557067D01*
X9987227Y11550300D01*
X9987600D01*
Y11636901D01*
D02*
G37*
G36*
X9845600D02*
X9759000D01*
Y11550300D01*
X9759373D01*
X9784628Y11557067D01*
X9807272Y11570140D01*
X9825760Y11588628D01*
X9838833Y11611271D01*
X9845600Y11636527D01*
Y11636901D01*
D02*
G37*
G36*
X9733600D02*
X9647000D01*
Y11636527D01*
X9653767Y11611271D01*
X9666840Y11588628D01*
X9685328Y11570140D01*
X9707972Y11557067D01*
X9733227Y11550300D01*
X9733600D01*
Y11636901D01*
D02*
G37*
G36*
X9245731Y11789600D02*
X9208869D01*
X9173262Y11780059D01*
X9141338Y11761627D01*
X9115272Y11735562D01*
X9096841Y11703638D01*
X9087300Y11668031D01*
Y11631169D01*
X9096841Y11595562D01*
X9115272Y11563638D01*
X9141338Y11537572D01*
X9173262Y11519141D01*
X9208869Y11509600D01*
X9245731D01*
X9281338Y11519141D01*
X9313262Y11537572D01*
X9339328Y11563638D01*
X9357759Y11595562D01*
X9367300Y11631169D01*
Y11668031D01*
X9357759Y11703638D01*
X9339328Y11735562D01*
X9313262Y11761627D01*
X9281338Y11780059D01*
X9245731Y11789600D01*
D02*
G37*
G36*
X8933211Y11598800D02*
X8855224D01*
Y11498189D01*
X8933211D01*
Y11598800D01*
D02*
G37*
G36*
X9912700Y11491174D02*
Y11462700D01*
X9941174D01*
X9936369Y11474301D01*
X9924301Y11486369D01*
X9912700Y11491174D01*
D02*
G37*
G36*
X9887300D02*
X9875699Y11486369D01*
X9863631Y11474301D01*
X9858826Y11462700D01*
X9887300D01*
Y11491174D01*
D02*
G37*
G36*
X9752700D02*
Y11462700D01*
X9781174D01*
X9776369Y11474301D01*
X9764301Y11486369D01*
X9752700Y11491174D01*
D02*
G37*
G36*
X9727300D02*
X9715699Y11486369D01*
X9703631Y11474301D01*
X9698826Y11462700D01*
X9727300D01*
Y11491174D01*
D02*
G37*
G36*
X9582700D02*
Y11462700D01*
X9611174D01*
X9606369Y11474301D01*
X9594301Y11486369D01*
X9582700Y11491174D01*
D02*
G37*
G36*
X9557300D02*
X9545699Y11486369D01*
X9533631Y11474301D01*
X9528826Y11462700D01*
X9557300D01*
Y11491174D01*
D02*
G37*
G36*
X9422700D02*
Y11462700D01*
X9451174D01*
X9446369Y11474301D01*
X9434301Y11486369D01*
X9422700Y11491174D01*
D02*
G37*
G36*
X9397300D02*
X9385699Y11486369D01*
X9373631Y11474301D01*
X9368826Y11462700D01*
X9397300D01*
Y11491174D01*
D02*
G37*
G36*
X9282700D02*
Y11462700D01*
X9311174D01*
X9306369Y11474301D01*
X9294301Y11486369D01*
X9282700Y11491174D01*
D02*
G37*
G36*
X9257300D02*
X9245699Y11486369D01*
X9233631Y11474301D01*
X9228826Y11462700D01*
X9257300D01*
Y11491174D01*
D02*
G37*
G36*
X9132700D02*
Y11462700D01*
X9161174D01*
X9156369Y11474301D01*
X9144301Y11486369D01*
X9132700Y11491174D01*
D02*
G37*
G36*
X9107300D02*
X9095699Y11486369D01*
X9083631Y11474301D01*
X9078826Y11462700D01*
X9107300D01*
Y11491174D01*
D02*
G37*
G36*
X9941174Y11437300D02*
X9912700D01*
Y11408826D01*
X9924301Y11413631D01*
X9936369Y11425699D01*
X9941174Y11437300D01*
D02*
G37*
G36*
X9887300D02*
X9858826D01*
X9863631Y11425699D01*
X9875699Y11413631D01*
X9887300Y11408826D01*
Y11437300D01*
D02*
G37*
G36*
X9781174D02*
X9752700D01*
Y11408826D01*
X9764301Y11413631D01*
X9776369Y11425699D01*
X9781174Y11437300D01*
D02*
G37*
G36*
X9727300D02*
X9698826D01*
X9703631Y11425699D01*
X9715699Y11413631D01*
X9727300Y11408826D01*
Y11437300D01*
D02*
G37*
G36*
X9611174D02*
X9582700D01*
Y11408826D01*
X9594301Y11413631D01*
X9606369Y11425699D01*
X9611174Y11437300D01*
D02*
G37*
G36*
X9557300D02*
X9528826D01*
X9533631Y11425699D01*
X9545699Y11413631D01*
X9557300Y11408826D01*
Y11437300D01*
D02*
G37*
G36*
X9451174D02*
X9422700D01*
Y11408826D01*
X9434301Y11413631D01*
X9446369Y11425699D01*
X9451174Y11437300D01*
D02*
G37*
G36*
X9397300D02*
X9368826D01*
X9373631Y11425699D01*
X9385699Y11413631D01*
X9397300Y11408826D01*
Y11437300D01*
D02*
G37*
G36*
X9311174D02*
X9282700D01*
Y11408826D01*
X9294301Y11413631D01*
X9306369Y11425699D01*
X9311174Y11437300D01*
D02*
G37*
G36*
X9257300D02*
X9228826D01*
X9233631Y11425699D01*
X9245699Y11413631D01*
X9257300Y11408826D01*
Y11437300D01*
D02*
G37*
G36*
X9161174D02*
X9132700D01*
Y11408826D01*
X9144301Y11413631D01*
X9156369Y11425699D01*
X9161174Y11437300D01*
D02*
G37*
G36*
X9107300D02*
X9078826D01*
X9083631Y11425699D01*
X9095699Y11413631D01*
X9107300Y11408826D01*
Y11437300D01*
D02*
G37*
G36*
X9912700Y11341174D02*
Y11312700D01*
X9941174D01*
X9936369Y11324301D01*
X9924301Y11336369D01*
X9912700Y11341174D01*
D02*
G37*
G36*
X9887300D02*
X9875699Y11336369D01*
X9863631Y11324301D01*
X9858826Y11312700D01*
X9887300D01*
Y11341174D01*
D02*
G37*
G36*
X9752700D02*
Y11312700D01*
X9781174D01*
X9776369Y11324301D01*
X9764301Y11336369D01*
X9752700Y11341174D01*
D02*
G37*
G36*
X9727300D02*
X9715699Y11336369D01*
X9703631Y11324301D01*
X9698826Y11312700D01*
X9727300D01*
Y11341174D01*
D02*
G37*
G36*
X9582700D02*
Y11312700D01*
X9611174D01*
X9606369Y11324301D01*
X9594301Y11336369D01*
X9582700Y11341174D01*
D02*
G37*
G36*
X9557300D02*
X9545699Y11336369D01*
X9533631Y11324301D01*
X9528826Y11312700D01*
X9557300D01*
Y11341174D01*
D02*
G37*
G36*
X9422700D02*
Y11312700D01*
X9451174D01*
X9446369Y11324301D01*
X9434301Y11336369D01*
X9422700Y11341174D01*
D02*
G37*
G36*
X9397300D02*
X9385699Y11336369D01*
X9373631Y11324301D01*
X9368826Y11312700D01*
X9397300D01*
Y11341174D01*
D02*
G37*
G36*
X9282700D02*
Y11312700D01*
X9311174D01*
X9306369Y11324301D01*
X9294301Y11336369D01*
X9282700Y11341174D01*
D02*
G37*
G36*
X9257300D02*
X9245699Y11336369D01*
X9233631Y11324301D01*
X9228826Y11312700D01*
X9257300D01*
Y11341174D01*
D02*
G37*
G36*
X9132700D02*
Y11312700D01*
X9161174D01*
X9156369Y11324301D01*
X9144301Y11336369D01*
X9132700Y11341174D01*
D02*
G37*
G36*
X9107300D02*
X9095699Y11336369D01*
X9083631Y11324301D01*
X9078826Y11312700D01*
X9107300D01*
Y11341174D01*
D02*
G37*
G36*
X8933211Y11407311D02*
X8855224D01*
Y11306700D01*
X8933211D01*
Y11407311D01*
D02*
G37*
G36*
X9941174Y11287300D02*
X9912700D01*
Y11258826D01*
X9924301Y11263631D01*
X9936369Y11275699D01*
X9941174Y11287300D01*
D02*
G37*
G36*
X9887300D02*
X9858826D01*
X9863631Y11275699D01*
X9875699Y11263631D01*
X9887300Y11258826D01*
Y11287300D01*
D02*
G37*
G36*
X9781174D02*
X9752700D01*
Y11258826D01*
X9764301Y11263631D01*
X9776369Y11275699D01*
X9781174Y11287300D01*
D02*
G37*
G36*
X9727300D02*
X9698826D01*
X9703631Y11275699D01*
X9715699Y11263631D01*
X9727300Y11258826D01*
Y11287300D01*
D02*
G37*
G36*
X9611174D02*
X9582700D01*
Y11258826D01*
X9594301Y11263631D01*
X9606369Y11275699D01*
X9611174Y11287300D01*
D02*
G37*
G36*
X9557300D02*
X9528826D01*
X9533631Y11275699D01*
X9545699Y11263631D01*
X9557300Y11258826D01*
Y11287300D01*
D02*
G37*
G36*
X9451174D02*
X9422700D01*
Y11258826D01*
X9434301Y11263631D01*
X9446369Y11275699D01*
X9451174Y11287300D01*
D02*
G37*
G36*
X9397300D02*
X9368826D01*
X9373631Y11275699D01*
X9385699Y11263631D01*
X9397300Y11258826D01*
Y11287300D01*
D02*
G37*
G36*
X9311174D02*
X9282700D01*
Y11258826D01*
X9294301Y11263631D01*
X9306369Y11275699D01*
X9311174Y11287300D01*
D02*
G37*
G36*
X9257300D02*
X9228826D01*
X9233631Y11275699D01*
X9245699Y11263631D01*
X9257300Y11258826D01*
Y11287300D01*
D02*
G37*
G36*
X9161174D02*
X9132700D01*
Y11258826D01*
X9144301Y11263631D01*
X9156369Y11275699D01*
X9161174Y11287300D01*
D02*
G37*
G36*
X9107300D02*
X9078826D01*
X9083631Y11275699D01*
X9095699Y11263631D01*
X9107300Y11258826D01*
Y11287300D01*
D02*
G37*
G36*
X8933211Y11281300D02*
X8855224D01*
Y11180689D01*
X8933211D01*
Y11281300D01*
D02*
G37*
G36*
X10082700Y11191174D02*
Y11162700D01*
X10111174D01*
X10106369Y11174301D01*
X10094301Y11186369D01*
X10082700Y11191174D01*
D02*
G37*
G36*
X10057300D02*
X10045699Y11186369D01*
X10033631Y11174301D01*
X10028826Y11162700D01*
X10057300D01*
Y11191174D01*
D02*
G37*
G36*
X9912700D02*
Y11162700D01*
X9941174D01*
X9936369Y11174301D01*
X9924301Y11186369D01*
X9912700Y11191174D01*
D02*
G37*
G36*
X9887300D02*
X9875699Y11186369D01*
X9863631Y11174301D01*
X9858826Y11162700D01*
X9887300D01*
Y11191174D01*
D02*
G37*
G36*
X9752700D02*
Y11162700D01*
X9781174D01*
X9776369Y11174301D01*
X9764301Y11186369D01*
X9752700Y11191174D01*
D02*
G37*
G36*
X9727300D02*
X9715699Y11186369D01*
X9703631Y11174301D01*
X9698826Y11162700D01*
X9727300D01*
Y11191174D01*
D02*
G37*
G36*
X9582700D02*
Y11162700D01*
X9611174D01*
X9606369Y11174301D01*
X9594301Y11186369D01*
X9582700Y11191174D01*
D02*
G37*
G36*
X9557300D02*
X9545699Y11186369D01*
X9533631Y11174301D01*
X9528826Y11162700D01*
X9557300D01*
Y11191174D01*
D02*
G37*
G36*
X9422700D02*
Y11162700D01*
X9451174D01*
X9446369Y11174301D01*
X9434301Y11186369D01*
X9422700Y11191174D01*
D02*
G37*
G36*
X9397300D02*
X9385699Y11186369D01*
X9373631Y11174301D01*
X9368826Y11162700D01*
X9397300D01*
Y11191174D01*
D02*
G37*
G36*
X9282700D02*
Y11162700D01*
X9311174D01*
X9306369Y11174301D01*
X9294301Y11186369D01*
X9282700Y11191174D01*
D02*
G37*
G36*
X9257300D02*
X9245699Y11186369D01*
X9233631Y11174301D01*
X9228826Y11162700D01*
X9257300D01*
Y11191174D01*
D02*
G37*
G36*
X9132700D02*
Y11162700D01*
X9161174D01*
X9156369Y11174301D01*
X9144301Y11186369D01*
X9132700Y11191174D01*
D02*
G37*
G36*
X9107300D02*
X9095699Y11186369D01*
X9083631Y11174301D01*
X9078826Y11162700D01*
X9107300D01*
Y11191174D01*
D02*
G37*
G36*
X10111174Y11137300D02*
X10082700D01*
Y11108826D01*
X10094301Y11113631D01*
X10106369Y11125699D01*
X10111174Y11137300D01*
D02*
G37*
G36*
X10057300D02*
X10028826D01*
X10033631Y11125699D01*
X10045699Y11113631D01*
X10057300Y11108826D01*
Y11137300D01*
D02*
G37*
G36*
X9941174D02*
X9912700D01*
Y11108826D01*
X9924301Y11113631D01*
X9936369Y11125699D01*
X9941174Y11137300D01*
D02*
G37*
G36*
X9887300D02*
X9858826D01*
X9863631Y11125699D01*
X9875699Y11113631D01*
X9887300Y11108826D01*
Y11137300D01*
D02*
G37*
G36*
X9781174D02*
X9752700D01*
Y11108826D01*
X9764301Y11113631D01*
X9776369Y11125699D01*
X9781174Y11137300D01*
D02*
G37*
G36*
X9727300D02*
X9698826D01*
X9703631Y11125699D01*
X9715699Y11113631D01*
X9727300Y11108826D01*
Y11137300D01*
D02*
G37*
G36*
X9611174D02*
X9582700D01*
Y11108826D01*
X9594301Y11113631D01*
X9606369Y11125699D01*
X9611174Y11137300D01*
D02*
G37*
G36*
X9557300D02*
X9528826D01*
X9533631Y11125699D01*
X9545699Y11113631D01*
X9557300Y11108826D01*
Y11137300D01*
D02*
G37*
G36*
X9451174D02*
X9422700D01*
Y11108826D01*
X9434301Y11113631D01*
X9446369Y11125699D01*
X9451174Y11137300D01*
D02*
G37*
G36*
X9397300D02*
X9368826D01*
X9373631Y11125699D01*
X9385699Y11113631D01*
X9397300Y11108826D01*
Y11137300D01*
D02*
G37*
G36*
X9311174D02*
X9282700D01*
Y11108826D01*
X9294301Y11113631D01*
X9306369Y11125699D01*
X9311174Y11137300D01*
D02*
G37*
G36*
X9257300D02*
X9228826D01*
X9233631Y11125699D01*
X9245699Y11113631D01*
X9257300Y11108826D01*
Y11137300D01*
D02*
G37*
G36*
X9161174D02*
X9132700D01*
Y11108826D01*
X9144301Y11113631D01*
X9156369Y11125699D01*
X9161174Y11137300D01*
D02*
G37*
G36*
X9107300D02*
X9078826D01*
X9083631Y11125699D01*
X9095699Y11113631D01*
X9107300Y11108826D01*
Y11137300D01*
D02*
G37*
G36*
X9580894Y11054280D02*
Y11025806D01*
X9609368D01*
X9604563Y11037407D01*
X9592495Y11049474D01*
X9580894Y11054280D01*
D02*
G37*
G36*
X9555494D02*
X9543893Y11049474D01*
X9531825Y11037407D01*
X9527020Y11025806D01*
X9555494D01*
Y11054280D01*
D02*
G37*
G36*
X10082700Y11051174D02*
Y11022700D01*
X10111174D01*
X10106369Y11034301D01*
X10094301Y11046369D01*
X10082700Y11051174D01*
D02*
G37*
G36*
X10057300D02*
X10045699Y11046369D01*
X10033631Y11034301D01*
X10028826Y11022700D01*
X10057300D01*
Y11051174D01*
D02*
G37*
G36*
X9912700D02*
Y11022700D01*
X9941174D01*
X9936369Y11034301D01*
X9924301Y11046369D01*
X9912700Y11051174D01*
D02*
G37*
G36*
X9887300D02*
X9875699Y11046369D01*
X9863631Y11034301D01*
X9858826Y11022700D01*
X9887300D01*
Y11051174D01*
D02*
G37*
G36*
X9752700D02*
Y11022700D01*
X9781174D01*
X9776369Y11034301D01*
X9764301Y11046369D01*
X9752700Y11051174D01*
D02*
G37*
G36*
X9727300D02*
X9715699Y11046369D01*
X9703631Y11034301D01*
X9698826Y11022700D01*
X9727300D01*
Y11051174D01*
D02*
G37*
G36*
X9422700D02*
Y11022700D01*
X9451174D01*
X9446369Y11034301D01*
X9434301Y11046369D01*
X9422700Y11051174D01*
D02*
G37*
G36*
X9397300D02*
X9385699Y11046369D01*
X9373631Y11034301D01*
X9368826Y11022700D01*
X9397300D01*
Y11051174D01*
D02*
G37*
G36*
X9282700D02*
Y11022700D01*
X9311174D01*
X9306369Y11034301D01*
X9294301Y11046369D01*
X9282700Y11051174D01*
D02*
G37*
G36*
X9257300D02*
X9245699Y11046369D01*
X9233631Y11034301D01*
X9228826Y11022700D01*
X9257300D01*
Y11051174D01*
D02*
G37*
G36*
X9132700D02*
Y11022700D01*
X9161174D01*
X9156369Y11034301D01*
X9144301Y11046369D01*
X9132700Y11051174D01*
D02*
G37*
G36*
X9107300D02*
X9095699Y11046369D01*
X9083631Y11034301D01*
X9078826Y11022700D01*
X9107300D01*
Y11051174D01*
D02*
G37*
G36*
X8917507Y11035524D02*
X8866825D01*
Y10989200D01*
X8917507D01*
Y11035524D01*
D02*
G37*
G36*
X9609368Y11000406D02*
X9580894D01*
Y10971932D01*
X9592495Y10976737D01*
X9604563Y10988805D01*
X9609368Y11000406D01*
D02*
G37*
G36*
X9555494D02*
X9527020D01*
X9531825Y10988805D01*
X9543893Y10976737D01*
X9555494Y10971932D01*
Y11000406D01*
D02*
G37*
G36*
X10111174Y10997300D02*
X10082700D01*
Y10968826D01*
X10094301Y10973631D01*
X10106369Y10985699D01*
X10111174Y10997300D01*
D02*
G37*
G36*
X10057300D02*
X10028826D01*
X10033631Y10985699D01*
X10045699Y10973631D01*
X10057300Y10968826D01*
Y10997300D01*
D02*
G37*
G36*
X9941174D02*
X9912700D01*
Y10968826D01*
X9924301Y10973631D01*
X9936369Y10985699D01*
X9941174Y10997300D01*
D02*
G37*
G36*
X9887300D02*
X9858826D01*
X9863631Y10985699D01*
X9875699Y10973631D01*
X9887300Y10968826D01*
Y10997300D01*
D02*
G37*
G36*
X9781174D02*
X9752700D01*
Y10968826D01*
X9764301Y10973631D01*
X9776369Y10985699D01*
X9781174Y10997300D01*
D02*
G37*
G36*
X9727300D02*
X9698826D01*
X9703631Y10985699D01*
X9715699Y10973631D01*
X9727300Y10968826D01*
Y10997300D01*
D02*
G37*
G36*
X9451174D02*
X9422700D01*
Y10968826D01*
X9434301Y10973631D01*
X9446369Y10985699D01*
X9451174Y10997300D01*
D02*
G37*
G36*
X9397300D02*
X9368826D01*
X9373631Y10985699D01*
X9385699Y10973631D01*
X9397300Y10968826D01*
Y10997300D01*
D02*
G37*
G36*
X9311174D02*
X9282700D01*
Y10968826D01*
X9294301Y10973631D01*
X9306369Y10985699D01*
X9311174Y10997300D01*
D02*
G37*
G36*
X9257300D02*
X9228826D01*
X9233631Y10985699D01*
X9245699Y10973631D01*
X9257300Y10968826D01*
Y10997300D01*
D02*
G37*
G36*
X9161174D02*
X9132700D01*
Y10968826D01*
X9144301Y10973631D01*
X9156369Y10985699D01*
X9161174Y10997300D01*
D02*
G37*
G36*
X9107300D02*
X9078826D01*
X9083631Y10985699D01*
X9095699Y10973631D01*
X9107300Y10968826D01*
Y10997300D01*
D02*
G37*
G36*
X9559675Y9297300D02*
X9508993D01*
Y9250976D01*
X9559675D01*
Y9297300D01*
D02*
G37*
G36*
X9358210Y9170710D02*
X9272700D01*
Y9095279D01*
X9358210D01*
Y9170710D01*
D02*
G37*
G36*
X9487300Y9140400D02*
X9409600D01*
Y9092700D01*
X9487300D01*
Y9140400D01*
D02*
G37*
G36*
X9750400Y8278300D02*
X9672700D01*
Y8230600D01*
X9750400D01*
Y8278300D01*
D02*
G37*
G36*
X9647300D02*
X9569600D01*
Y8230600D01*
X9647300D01*
Y8278300D01*
D02*
G37*
G36*
X9420400Y8257300D02*
X9342700D01*
Y8209600D01*
X9420400D01*
Y8257300D01*
D02*
G37*
G36*
X9742700Y8101174D02*
Y8072700D01*
X9771174D01*
X9766369Y8084301D01*
X9754301Y8096369D01*
X9742700Y8101174D01*
D02*
G37*
G36*
X9717300D02*
X9705699Y8096369D01*
X9693631Y8084301D01*
X9688826Y8072700D01*
X9717300D01*
Y8101174D01*
D02*
G37*
G36*
X9612700D02*
Y8072700D01*
X9641174D01*
X9636369Y8084301D01*
X9624301Y8096369D01*
X9612700Y8101174D01*
D02*
G37*
G36*
X9587300D02*
X9575699Y8096369D01*
X9563631Y8084301D01*
X9558826Y8072700D01*
X9587300D01*
Y8101174D01*
D02*
G37*
G36*
X9492700D02*
Y8072700D01*
X9521174D01*
X9516369Y8084301D01*
X9504301Y8096369D01*
X9492700Y8101174D01*
D02*
G37*
G36*
X9467300D02*
X9455699Y8096369D01*
X9443631Y8084301D01*
X9438826Y8072700D01*
X9467300D01*
Y8101174D01*
D02*
G37*
G36*
X9372700D02*
Y8072700D01*
X9401174D01*
X9396369Y8084301D01*
X9384301Y8096369D01*
X9372700Y8101174D01*
D02*
G37*
G36*
X9347300D02*
X9335699Y8096369D01*
X9323631Y8084301D01*
X9318826Y8072700D01*
X9347300D01*
Y8101174D01*
D02*
G37*
G36*
X9934300Y8067301D02*
X9888600D01*
Y8023600D01*
X9934300D01*
Y8067301D01*
D02*
G37*
G36*
X9771174Y8047300D02*
X9742700D01*
Y8018826D01*
X9754301Y8023631D01*
X9766369Y8035699D01*
X9771174Y8047300D01*
D02*
G37*
G36*
X9717300D02*
X9688826D01*
X9693631Y8035699D01*
X9705699Y8023631D01*
X9717300Y8018826D01*
Y8047300D01*
D02*
G37*
G36*
X9641174D02*
X9612700D01*
Y8018826D01*
X9624301Y8023631D01*
X9636369Y8035699D01*
X9641174Y8047300D01*
D02*
G37*
G36*
X9587300D02*
X9558826D01*
X9563631Y8035699D01*
X9575699Y8023631D01*
X9587300Y8018826D01*
Y8047300D01*
D02*
G37*
G36*
X9521174D02*
X9492700D01*
Y8018826D01*
X9504301Y8023631D01*
X9516369Y8035699D01*
X9521174Y8047300D01*
D02*
G37*
G36*
X9467300D02*
X9438826D01*
X9443631Y8035699D01*
X9455699Y8023631D01*
X9467300Y8018826D01*
Y8047300D01*
D02*
G37*
G36*
X9401174D02*
X9372700D01*
Y8018826D01*
X9384301Y8023631D01*
X9396369Y8035699D01*
X9401174Y8047300D01*
D02*
G37*
G36*
X9347300D02*
X9318826D01*
X9323631Y8035699D01*
X9335699Y8023631D01*
X9347300Y8018826D01*
Y8047300D01*
D02*
G37*
G36*
X9987300Y7981174D02*
X9975699Y7976369D01*
X9963631Y7964301D01*
X9958826Y7952700D01*
X9987300D01*
Y7981174D01*
D02*
G37*
G36*
X9882700D02*
Y7952700D01*
X9911174D01*
X9906369Y7964301D01*
X9894301Y7976369D01*
X9882700Y7981174D01*
D02*
G37*
G36*
X9857300D02*
X9845699Y7976369D01*
X9833631Y7964301D01*
X9828826Y7952700D01*
X9857300D01*
Y7981174D01*
D02*
G37*
G36*
X9742700D02*
Y7952700D01*
X9771174D01*
X9766369Y7964301D01*
X9754301Y7976369D01*
X9742700Y7981174D01*
D02*
G37*
G36*
X9717300D02*
X9705699Y7976369D01*
X9693631Y7964301D01*
X9688826Y7952700D01*
X9717300D01*
Y7981174D01*
D02*
G37*
G36*
X9612700D02*
Y7952700D01*
X9641174D01*
X9636369Y7964301D01*
X9624301Y7976369D01*
X9612700Y7981174D01*
D02*
G37*
G36*
X9587300D02*
X9575699Y7976369D01*
X9563631Y7964301D01*
X9558826Y7952700D01*
X9587300D01*
Y7981174D01*
D02*
G37*
G36*
X9492700D02*
Y7952700D01*
X9521174D01*
X9516369Y7964301D01*
X9504301Y7976369D01*
X9492700Y7981174D01*
D02*
G37*
G36*
X9467300D02*
X9455699Y7976369D01*
X9443631Y7964301D01*
X9438826Y7952700D01*
X9467300D01*
Y7981174D01*
D02*
G37*
G36*
X9372700D02*
Y7952700D01*
X9401174D01*
X9396369Y7964301D01*
X9384301Y7976369D01*
X9372700Y7981174D01*
D02*
G37*
G36*
X9347300D02*
X9335699Y7976369D01*
X9323631Y7964301D01*
X9318826Y7952700D01*
X9347300D01*
Y7981174D01*
D02*
G37*
G36*
X10041174Y7927300D02*
X10012700D01*
Y7898826D01*
X10024301Y7903631D01*
X10036369Y7915699D01*
X10041174Y7927300D01*
D02*
G37*
G36*
X9987300D02*
X9958826D01*
X9963631Y7915699D01*
X9975699Y7903631D01*
X9987300Y7898826D01*
Y7927300D01*
D02*
G37*
G36*
X9911174D02*
X9882700D01*
Y7898826D01*
X9894301Y7903631D01*
X9906369Y7915699D01*
X9911174Y7927300D01*
D02*
G37*
G36*
X9857300D02*
X9828826D01*
X9833631Y7915699D01*
X9845699Y7903631D01*
X9857300Y7898826D01*
Y7927300D01*
D02*
G37*
G36*
X9771174D02*
X9742700D01*
Y7898826D01*
X9754301Y7903631D01*
X9766369Y7915699D01*
X9771174Y7927300D01*
D02*
G37*
G36*
X9717300D02*
X9688826D01*
X9693631Y7915699D01*
X9705699Y7903631D01*
X9717300Y7898826D01*
Y7927300D01*
D02*
G37*
G36*
X9641174D02*
X9612700D01*
Y7898826D01*
X9624301Y7903631D01*
X9636369Y7915699D01*
X9641174Y7927300D01*
D02*
G37*
G36*
X9587300D02*
X9558826D01*
X9563631Y7915699D01*
X9575699Y7903631D01*
X9587300Y7898826D01*
Y7927300D01*
D02*
G37*
G36*
X9521174D02*
X9492700D01*
Y7898826D01*
X9504301Y7903631D01*
X9516369Y7915699D01*
X9521174Y7927300D01*
D02*
G37*
G36*
X9467300D02*
X9438826D01*
X9443631Y7915699D01*
X9455699Y7903631D01*
X9467300Y7898826D01*
Y7927300D01*
D02*
G37*
G36*
X9401174D02*
X9372700D01*
Y7898826D01*
X9384301Y7903631D01*
X9396369Y7915699D01*
X9401174Y7927300D01*
D02*
G37*
G36*
X9347300D02*
X9318826D01*
X9323631Y7915699D01*
X9335699Y7903631D01*
X9347300Y7898826D01*
Y7927300D01*
D02*
G37*
G36*
X10012700Y7861174D02*
Y7832700D01*
X10041174D01*
X10036369Y7844301D01*
X10024301Y7856369D01*
X10012700Y7861174D01*
D02*
G37*
G36*
X9987300D02*
X9975699Y7856369D01*
X9963631Y7844301D01*
X9958826Y7832700D01*
X9987300D01*
Y7861174D01*
D02*
G37*
G36*
X9882700D02*
Y7832700D01*
X9911174D01*
X9906369Y7844301D01*
X9894301Y7856369D01*
X9882700Y7861174D01*
D02*
G37*
G36*
X9857300D02*
X9845699Y7856369D01*
X9833631Y7844301D01*
X9828826Y7832700D01*
X9857300D01*
Y7861174D01*
D02*
G37*
G36*
X9742700D02*
Y7832700D01*
X9771174D01*
X9766369Y7844301D01*
X9754301Y7856369D01*
X9742700Y7861174D01*
D02*
G37*
G36*
X9717300D02*
X9705699Y7856369D01*
X9693631Y7844301D01*
X9688826Y7832700D01*
X9717300D01*
Y7861174D01*
D02*
G37*
G36*
X9612700D02*
Y7832700D01*
X9641174D01*
X9636369Y7844301D01*
X9624301Y7856369D01*
X9612700Y7861174D01*
D02*
G37*
G36*
X9587300D02*
X9575699Y7856369D01*
X9563631Y7844301D01*
X9558826Y7832700D01*
X9587300D01*
Y7861174D01*
D02*
G37*
G36*
X9492700D02*
Y7832700D01*
X9521174D01*
X9516369Y7844301D01*
X9504301Y7856369D01*
X9492700Y7861174D01*
D02*
G37*
G36*
X9467300D02*
X9455699Y7856369D01*
X9443631Y7844301D01*
X9438826Y7832700D01*
X9467300D01*
Y7861174D01*
D02*
G37*
G36*
X9372700D02*
Y7832700D01*
X9401174D01*
X9396369Y7844301D01*
X9384301Y7856369D01*
X9372700Y7861174D01*
D02*
G37*
G36*
X9347300D02*
X9335699Y7856369D01*
X9323631Y7844301D01*
X9318826Y7832700D01*
X9347300D01*
Y7861174D01*
D02*
G37*
G36*
X10041174Y7807300D02*
X10012700D01*
Y7778826D01*
X10024301Y7783631D01*
X10036369Y7795699D01*
X10041174Y7807300D01*
D02*
G37*
G36*
X9987300D02*
X9958826D01*
X9963631Y7795699D01*
X9975699Y7783631D01*
X9987300Y7778826D01*
Y7807300D01*
D02*
G37*
G36*
X9911174D02*
X9882700D01*
Y7778826D01*
X9894301Y7783631D01*
X9906369Y7795699D01*
X9911174Y7807300D01*
D02*
G37*
G36*
X9857300D02*
X9828826D01*
X9833631Y7795699D01*
X9845699Y7783631D01*
X9857300Y7778826D01*
Y7807300D01*
D02*
G37*
G36*
X9771174D02*
X9742700D01*
Y7778826D01*
X9754301Y7783631D01*
X9766369Y7795699D01*
X9771174Y7807300D01*
D02*
G37*
G36*
X9717300D02*
X9688826D01*
X9693631Y7795699D01*
X9705699Y7783631D01*
X9717300Y7778826D01*
Y7807300D01*
D02*
G37*
G36*
X9641174D02*
X9612700D01*
Y7778826D01*
X9624301Y7783631D01*
X9636369Y7795699D01*
X9641174Y7807300D01*
D02*
G37*
G36*
X9587300D02*
X9558826D01*
X9563631Y7795699D01*
X9575699Y7783631D01*
X9587300Y7778826D01*
Y7807300D01*
D02*
G37*
G36*
X9521174D02*
X9492700D01*
Y7778826D01*
X9504301Y7783631D01*
X9516369Y7795699D01*
X9521174Y7807300D01*
D02*
G37*
G36*
X9467300D02*
X9438826D01*
X9443631Y7795699D01*
X9455699Y7783631D01*
X9467300Y7778826D01*
Y7807300D01*
D02*
G37*
G36*
X9401174D02*
X9372700D01*
Y7778826D01*
X9384301Y7783631D01*
X9396369Y7795699D01*
X9401174Y7807300D01*
D02*
G37*
G36*
X9347300D02*
X9318826D01*
X9323631Y7795699D01*
X9335699Y7783631D01*
X9347300Y7778826D01*
Y7807300D01*
D02*
G37*
G36*
X10012700Y7751174D02*
Y7722700D01*
X10041174D01*
X10036369Y7734301D01*
X10024301Y7746369D01*
X10012700Y7751174D01*
D02*
G37*
G36*
X9987300D02*
X9975699Y7746369D01*
X9963631Y7734301D01*
X9958826Y7722700D01*
X9987300D01*
Y7751174D01*
D02*
G37*
G36*
X9882700D02*
Y7722700D01*
X9911174D01*
X9906369Y7734301D01*
X9894301Y7746369D01*
X9882700Y7751174D01*
D02*
G37*
G36*
X9857300D02*
X9845699Y7746369D01*
X9833631Y7734301D01*
X9828826Y7722700D01*
X9857300D01*
Y7751174D01*
D02*
G37*
G36*
X9742700D02*
Y7722700D01*
X9771174D01*
X9766369Y7734301D01*
X9754301Y7746369D01*
X9742700Y7751174D01*
D02*
G37*
G36*
X9717300D02*
X9705699Y7746369D01*
X9693631Y7734301D01*
X9688826Y7722700D01*
X9717300D01*
Y7751174D01*
D02*
G37*
G36*
X9612700D02*
Y7722700D01*
X9641174D01*
X9636369Y7734301D01*
X9624301Y7746369D01*
X9612700Y7751174D01*
D02*
G37*
G36*
X9587300D02*
X9575699Y7746369D01*
X9563631Y7734301D01*
X9558826Y7722700D01*
X9587300D01*
Y7751174D01*
D02*
G37*
G36*
X9492700D02*
Y7722700D01*
X9521174D01*
X9516369Y7734301D01*
X9504301Y7746369D01*
X9492700Y7751174D01*
D02*
G37*
G36*
X9467300D02*
X9455699Y7746369D01*
X9443631Y7734301D01*
X9438826Y7722700D01*
X9467300D01*
Y7751174D01*
D02*
G37*
G36*
X10041174Y7697300D02*
X10012700D01*
Y7668826D01*
X10024301Y7673631D01*
X10036369Y7685699D01*
X10041174Y7697300D01*
D02*
G37*
G36*
X9987300D02*
X9958826D01*
X9963631Y7685699D01*
X9975699Y7673631D01*
X9987300Y7668826D01*
Y7697300D01*
D02*
G37*
G36*
X9911174D02*
X9882700D01*
Y7668826D01*
X9894301Y7673631D01*
X9906369Y7685699D01*
X9911174Y7697300D01*
D02*
G37*
G36*
X9857300D02*
X9828826D01*
X9833631Y7685699D01*
X9845699Y7673631D01*
X9857300Y7668826D01*
Y7697300D01*
D02*
G37*
G36*
X9771174D02*
X9742700D01*
Y7668826D01*
X9754301Y7673631D01*
X9766369Y7685699D01*
X9771174Y7697300D01*
D02*
G37*
G36*
X9717300D02*
X9688826D01*
X9693631Y7685699D01*
X9705699Y7673631D01*
X9717300Y7668826D01*
Y7697300D01*
D02*
G37*
G36*
X9641174D02*
X9612700D01*
Y7668826D01*
X9624301Y7673631D01*
X9636369Y7685699D01*
X9641174Y7697300D01*
D02*
G37*
G36*
X9587300D02*
X9558826D01*
X9563631Y7685699D01*
X9575699Y7673631D01*
X9587300Y7668826D01*
Y7697300D01*
D02*
G37*
G36*
X9521174D02*
X9492700D01*
Y7668826D01*
X9504301Y7673631D01*
X9516369Y7685699D01*
X9521174Y7697300D01*
D02*
G37*
G36*
X9467300D02*
X9438826D01*
X9443631Y7685699D01*
X9455699Y7673631D01*
X9467300Y7668826D01*
Y7697300D01*
D02*
G37*
G36*
X9882700Y7641174D02*
Y7612700D01*
X9911174D01*
X9906369Y7624301D01*
X9894301Y7636369D01*
X9882700Y7641174D01*
D02*
G37*
G36*
X9857300D02*
X9845699Y7636369D01*
X9833631Y7624301D01*
X9828826Y7612700D01*
X9857300D01*
Y7641174D01*
D02*
G37*
G36*
X9742700D02*
Y7612700D01*
X9771174D01*
X9766369Y7624301D01*
X9754301Y7636369D01*
X9742700Y7641174D01*
D02*
G37*
G36*
X9717300D02*
X9705699Y7636369D01*
X9693631Y7624301D01*
X9688826Y7612700D01*
X9717300D01*
Y7641174D01*
D02*
G37*
G36*
X9622700D02*
Y7612700D01*
X9651174D01*
X9646369Y7624301D01*
X9634301Y7636369D01*
X9622700Y7641174D01*
D02*
G37*
G36*
X9597300D02*
X9585699Y7636369D01*
X9573631Y7624301D01*
X9568826Y7612700D01*
X9597300D01*
Y7641174D01*
D02*
G37*
G36*
X9911174Y7587300D02*
X9882700D01*
Y7558826D01*
X9894301Y7563631D01*
X9906369Y7575699D01*
X9911174Y7587300D01*
D02*
G37*
G36*
X9857300D02*
X9828826D01*
X9833631Y7575699D01*
X9845699Y7563631D01*
X9857300Y7558826D01*
Y7587300D01*
D02*
G37*
G36*
X9771174D02*
X9742700D01*
Y7558826D01*
X9754301Y7563631D01*
X9766369Y7575699D01*
X9771174Y7587300D01*
D02*
G37*
G36*
X9717300D02*
X9688826D01*
X9693631Y7575699D01*
X9705699Y7563631D01*
X9717300Y7558826D01*
Y7587300D01*
D02*
G37*
G36*
X9651174D02*
X9622700D01*
Y7558826D01*
X9634301Y7563631D01*
X9646369Y7575699D01*
X9651174Y7587300D01*
D02*
G37*
G36*
X9597300D02*
X9568826D01*
X9573631Y7575699D01*
X9585699Y7563631D01*
X9597300Y7558826D01*
Y7587300D01*
D02*
G37*
G36*
X10057299Y7594400D02*
X10056782D01*
X10031247Y7587558D01*
X10008353Y7574340D01*
X9989660Y7555647D01*
X9976442Y7532753D01*
X9969600Y7507218D01*
Y7506699D01*
X10057299D01*
Y7594400D01*
D02*
G37*
G36*
X9882700Y7531174D02*
Y7502700D01*
X9911174D01*
X9906369Y7514301D01*
X9894301Y7526369D01*
X9882700Y7531174D01*
D02*
G37*
G36*
X9857300D02*
X9845699Y7526369D01*
X9833631Y7514301D01*
X9828826Y7502700D01*
X9857300D01*
Y7531174D01*
D02*
G37*
G36*
X9742700D02*
Y7502700D01*
X9771174D01*
X9766369Y7514301D01*
X9754301Y7526369D01*
X9742700Y7531174D01*
D02*
G37*
G36*
X9717300D02*
X9705699Y7526369D01*
X9693631Y7514301D01*
X9688826Y7502700D01*
X9717300D01*
Y7531174D01*
D02*
G37*
G36*
X9911174Y7477300D02*
X9882700D01*
Y7448826D01*
X9894301Y7453631D01*
X9906369Y7465699D01*
X9911174Y7477300D01*
D02*
G37*
G36*
X9857300D02*
X9828826D01*
X9833631Y7465699D01*
X9845699Y7453631D01*
X9857300Y7448826D01*
Y7477300D01*
D02*
G37*
G36*
X9771174D02*
X9742700D01*
Y7448826D01*
X9754301Y7453631D01*
X9766369Y7465699D01*
X9771174Y7477300D01*
D02*
G37*
G36*
X9717300D02*
X9688826D01*
X9693631Y7465699D01*
X9705699Y7453631D01*
X9717300Y7448826D01*
Y7477300D01*
D02*
G37*
G36*
X10790400Y8077300D02*
X10742701D01*
Y7999600D01*
X10790400D01*
Y8077300D01*
D02*
G37*
%LPD*%
D10*
X13589000Y11686500D02*
D03*
Y9908500D02*
D03*
X11811000Y11686500D02*
D03*
X13589000Y10924500D02*
D03*
X11811000Y10797500D02*
D03*
Y10416500D02*
D03*
X13589000Y9273500D02*
D03*
X11811000D02*
D03*
X13589000Y10035500D02*
D03*
X11811000Y10289500D02*
D03*
X13589000Y11559500D02*
D03*
Y11432500D02*
D03*
Y11305500D02*
D03*
Y11178500D02*
D03*
Y11051500D02*
D03*
Y10797500D02*
D03*
Y10670500D02*
D03*
Y10543500D02*
D03*
Y10416500D02*
D03*
Y10289500D02*
D03*
Y10162500D02*
D03*
Y9781500D02*
D03*
Y9654500D02*
D03*
Y9527500D02*
D03*
Y9400500D02*
D03*
X11811000D02*
D03*
Y9527500D02*
D03*
Y9654500D02*
D03*
Y9781500D02*
D03*
Y9908500D02*
D03*
Y10035500D02*
D03*
Y10162500D02*
D03*
Y10543500D02*
D03*
Y10670500D02*
D03*
Y10924500D02*
D03*
Y11051500D02*
D03*
Y11178500D02*
D03*
Y11305500D02*
D03*
Y11432500D02*
D03*
Y11559500D02*
D03*
D11*
X12319000Y9146500D02*
D03*
X12953999D02*
D03*
X13081000D02*
D03*
X12700000D02*
D03*
X12446000D02*
D03*
X12827000D02*
D03*
X12573000D02*
D03*
D12*
X10142200Y8430400D02*
D03*
X10292200D02*
D03*
X9942200Y8910400D02*
D03*
X9992200D02*
D03*
X10042200D02*
D03*
X9942200Y8430400D02*
D03*
X9992200D02*
D03*
X10042200D02*
D03*
X10092200D02*
D03*
X10192200D02*
D03*
X10242200D02*
D03*
X10292200Y8910400D02*
D03*
X10242200D02*
D03*
X10192200D02*
D03*
X10142200D02*
D03*
X10092200D02*
D03*
D13*
X10552375Y8270000D02*
D03*
X9572375Y9310000D02*
D03*
X8854125Y10976500D02*
D03*
X9667625Y9310000D02*
D03*
X10647625Y8270000D02*
D03*
X8758875Y10976500D02*
D03*
X10307625Y8080000D02*
D03*
X10212375D02*
D03*
D14*
X12580000Y8280000D02*
D03*
Y7060000D02*
D03*
D15*
X10357200Y8645400D02*
D03*
X9877200Y8595400D02*
D03*
Y8645400D02*
D03*
Y8845400D02*
D03*
X10357200Y8495400D02*
D03*
X9877200Y8795400D02*
D03*
Y8745400D02*
D03*
Y8545400D02*
D03*
Y8495400D02*
D03*
X10357200Y8545400D02*
D03*
Y8695400D02*
D03*
Y8745400D02*
D03*
Y8795400D02*
D03*
Y8845400D02*
D03*
X9877200Y8695400D02*
D03*
X10357200Y8595400D02*
D03*
D16*
X10700000Y9783000D02*
D03*
Y9697000D02*
D03*
D17*
X10380000Y10720000D02*
D03*
Y10270000D02*
D03*
D18*
X10417000Y10040000D02*
D03*
X9947000Y8080000D02*
D03*
X10503000Y10040000D02*
D03*
X10033000Y8080000D02*
D03*
D19*
X10577500Y9765000D02*
D03*
Y9665000D02*
D03*
Y9615000D02*
D03*
X10182500Y9565000D02*
D03*
X10577500D02*
D03*
Y9715000D02*
D03*
Y9815000D02*
D03*
X10182500Y9615000D02*
D03*
Y9665000D02*
D03*
Y9715000D02*
D03*
Y9765000D02*
D03*
Y9815000D02*
D03*
D20*
X10790000Y9547856D02*
D03*
Y9452144D02*
D03*
D21*
X10380000Y9690000D02*
D03*
D22*
X10923000Y7266000D02*
D03*
Y7520000D02*
D03*
X11050000Y7266000D02*
D03*
Y7393000D02*
D03*
X10923000D02*
D03*
X11050000Y7520000D02*
D03*
D23*
X10530000Y8090000D02*
D03*
X10730000D02*
D03*
D24*
X10255000Y9890000D02*
D03*
Y9490000D02*
D03*
X10305000D02*
D03*
X10355000D02*
D03*
X10405000D02*
D03*
X10455000D02*
D03*
X10505000D02*
D03*
X10305000Y9890000D02*
D03*
X10355000D02*
D03*
X10405000D02*
D03*
X10455000D02*
D03*
X10505000D02*
D03*
D25*
X10030000Y9910000D02*
D03*
Y9810000D02*
D03*
D26*
X9500000Y9080000D02*
D03*
X9660000Y8291000D02*
D03*
X9330000Y8270000D02*
D03*
X9660000Y8491000D02*
D03*
X9500000Y8880000D02*
D03*
X8550000Y10520000D02*
D03*
Y10720000D02*
D03*
X9330000Y8470000D02*
D03*
D27*
X8842524Y11903600D02*
D03*
Y11611500D02*
D03*
Y11294000D02*
D03*
X8567276Y11903600D02*
D03*
Y11611500D02*
D03*
Y11294000D02*
D03*
D28*
X9217282Y10740000D02*
D03*
Y10450000D02*
D03*
X9382718Y10740000D02*
D03*
Y10450000D02*
D03*
D29*
X9260000Y9082578D02*
D03*
Y8917422D02*
D03*
D30*
X8755000Y10495000D02*
D03*
X8850000D02*
D03*
X8945000D02*
D03*
Y10745000D02*
D03*
X8850000D02*
D03*
X8755000D02*
D03*
D31*
X8902500Y9400000D02*
D03*
X8782500Y8240000D02*
D03*
X8797500Y9400000D02*
D03*
X8677500Y8240000D02*
D03*
D32*
X10117200Y8670400D02*
D03*
D33*
X10960000Y10855000D02*
D03*
Y10205000D02*
D03*
D34*
X8820000Y9070000D02*
D03*
Y8490000D02*
D03*
X8566000D02*
D03*
Y9070000D02*
D03*
D35*
X8492187Y10976500D02*
D03*
X8577900D02*
D03*
D36*
X8655000Y10120000D02*
D03*
X8945000D02*
D03*
D37*
X10190000Y9160000D02*
D03*
X9880000D02*
D03*
X9980000D02*
D03*
X10090000D02*
D03*
D38*
X9820000Y10731500D02*
D03*
Y10288500D02*
D03*
D39*
X11570000Y9180000D02*
Y9261353D01*
Y9180000D02*
X11658647Y9091353D01*
X12070000D01*
X11677500Y10797500D02*
X11811000D01*
X11640000Y10760000D02*
X11677500Y10797500D01*
X11640000Y10621353D02*
Y10760000D01*
Y10490000D02*
Y10621353D01*
Y10490000D02*
X11675200Y10454800D01*
X11772700D01*
X11811000Y10416500D01*
X13700000Y9780000D02*
X13730000Y9750000D01*
X13590500Y9780000D02*
X13700000D01*
X13730000Y9010000D02*
Y9750000D01*
X13589000Y9781500D02*
X13590500Y9780000D01*
X13689999Y8970000D02*
X13730000Y9010000D01*
X12740000Y8970000D02*
X13689999D01*
X10142200Y8307800D02*
X10180000Y8270000D01*
X10142200Y8307800D02*
Y8430400D01*
X10300000Y8270000D02*
X10552375D01*
X10548017D02*
X10552375D01*
X10300000D02*
Y8330000D01*
X10180000Y8270000D02*
X10300000D01*
X13589000Y11779000D02*
X13630000Y11820000D01*
X13589000Y11686500D02*
Y11779000D01*
X11747300Y11724800D02*
Y11799994D01*
X11740000Y11807294D02*
Y11810000D01*
Y11807294D02*
X11747300Y11799994D01*
X11785600Y11686500D02*
X11811000D01*
X11747300Y11724800D02*
X11785600Y11686500D01*
X13592146Y10921353D02*
X13710001D01*
X13591853Y9911353D02*
X13739999D01*
X13589000Y10924500D02*
X13592146Y10921353D01*
X13589000Y9908500D02*
X13591853Y9911353D01*
X10260000Y9838609D02*
Y9885001D01*
X10262500Y9807500D02*
X10325000Y9745000D01*
X10260000Y9838609D02*
X10262500Y9836109D01*
Y9807500D02*
Y9836109D01*
X10250000Y9910000D02*
X10255000Y9905000D01*
Y9890000D02*
X10260000Y9885001D01*
Y9565000D02*
X10327500Y9632500D01*
X13589000Y9273500D02*
X13589999Y9272500D01*
X12953999Y9146500D02*
X13081000D01*
X13230223D01*
X13589999Y9081353D02*
Y9272500D01*
X13230223Y9146500D02*
X13297125Y9079599D01*
X12915700Y9108200D02*
X12953999Y9146500D01*
X12319000D02*
X12446000D01*
X12700000Y9121100D02*
Y9146500D01*
X12319000Y9129653D02*
Y9146500D01*
X13589124Y9080476D02*
X13589999Y9081353D01*
X13298003Y9080476D02*
X13589124D01*
X12915700Y9069309D02*
Y9108200D01*
X13297125Y9079599D02*
X13298003Y9080476D01*
X12889191Y9042800D02*
X12915700Y9069309D01*
X12280700Y9091353D02*
X12319000Y9129653D01*
X12700000Y9121100D02*
X12748700Y9072400D01*
X12070000Y9091353D02*
X12280700D01*
X12748700Y9058909D02*
X12764809Y9042800D01*
X12889191D01*
X12748700Y9058909D02*
Y9072400D01*
X11798853Y9261353D02*
X11811000Y9273500D01*
X11570000Y9261353D02*
X11798853D01*
X10255000Y9490000D02*
X10260000Y9495000D01*
X10279700Y8476968D02*
Y8507900D01*
X10260000Y9495000D02*
Y9565000D01*
X10898194Y7264500D02*
X10899694Y7266000D01*
X10923000D01*
X10530000Y7920000D02*
Y8090000D01*
X10797206Y7264500D02*
X10898194D01*
X10795706Y7263000D02*
X10797206Y7264500D01*
X10282200Y8467900D02*
X10292200Y8457900D01*
Y8430400D02*
Y8457900D01*
X10279700Y8476968D02*
X10282200Y8474468D01*
Y8467900D02*
Y8474468D01*
X10030000Y9910000D02*
X10250000D01*
X10030000Y9910000D02*
Y10050000D01*
X10030000Y9910000D02*
X10030000Y9910000D01*
X9500000Y9080000D02*
X9500000Y9080000D01*
X9649290D01*
X9818890Y8910400D01*
X8902500Y9400000D02*
X8902507Y9399993D01*
Y9276486D02*
X8902514Y9276479D01*
X8902507Y9276486D02*
Y9399993D01*
X8753534Y10493535D02*
X8755000Y10495000D01*
X8753534Y10394655D02*
Y10493535D01*
X8752069Y10393189D02*
X8753534Y10394655D01*
X9954700Y8832900D02*
Y8863832D01*
Y8832900D02*
X10007200Y8780400D01*
X9942200Y8882900D02*
X9952200Y8872900D01*
X9818890Y8910400D02*
X9942200D01*
Y8882900D02*
Y8910400D01*
X9952200Y8866332D02*
X9954700Y8863832D01*
X9952200Y8866332D02*
Y8872900D01*
X10227200Y8560400D02*
X10279700Y8507900D01*
X10042200Y8595400D02*
X10117200Y8670400D01*
X9877200Y8595400D02*
X10042200D01*
X8782500Y8240000D02*
X8870000D01*
X9480000Y7750000D02*
Y7760000D01*
X9310000Y7580000D02*
X9480000Y7750000D01*
X10950000Y9950000D02*
X10990000Y9910000D01*
X9958768Y8977900D02*
X9982200Y8954469D01*
X9992200Y8910400D02*
Y8937900D01*
X9982200Y8947900D02*
X9992200Y8937900D01*
X9982200Y8947900D02*
Y8954469D01*
X9667625Y9132375D02*
X9822100Y8977900D01*
X9958768D01*
X9667625Y9132375D02*
Y9310000D01*
X9750000Y8580000D02*
X9815400Y8645400D01*
X9760000Y8880000D02*
X9794600Y8845400D01*
X9877200D01*
X9815400Y8645400D02*
X9877200D01*
X9940000Y9341882D02*
Y9350000D01*
Y9341882D02*
X9980000Y9301882D01*
Y9160000D02*
Y9301882D01*
X10040000Y9510000D02*
X10095000Y9565000D01*
X10182500D01*
X9980000Y9071300D02*
Y9160000D01*
X10042200Y8910400D02*
Y9009100D01*
X9980000Y9071300D02*
X10042200Y9009100D01*
X10577500Y9815000D02*
X10602500D01*
X10710000Y9922500D01*
X9995000Y9615000D02*
X10182500D01*
X10075000Y9765000D02*
X10182500D01*
X10090000Y9160000D02*
Y9300000D01*
X9960000Y9430000D02*
X10090000Y9300000D01*
X9960000Y9430000D02*
Y9580000D01*
X10490000Y8840000D02*
X10920000D01*
X11220000Y8540000D01*
X10950000Y8910000D02*
X11300000Y8560000D01*
X10980000Y8980000D02*
X11360000Y8600000D01*
X10449300Y8910000D02*
X10950000D01*
X10277732Y8980000D02*
X10980000D01*
X11360000Y7430000D02*
Y8600000D01*
X11300000Y7450000D02*
Y8560000D01*
X11220000Y7550000D02*
Y8540000D01*
X10710000Y9930000D02*
X10715740Y9935740D01*
X10761862D01*
X10776122Y9950000D01*
X10950000D01*
X10990000Y9180000D02*
Y9910000D01*
X10870000Y9060000D02*
X10990000Y9180000D01*
X10230000Y9060000D02*
X10870000D01*
X10142200Y8972200D02*
X10230000Y9060000D01*
X10142200Y8910400D02*
Y8972200D01*
X10367956Y7393000D02*
X10923000D01*
X10710000Y9922500D02*
Y9930000D01*
X10092200Y8910400D02*
Y9157800D01*
X10090000Y9160000D02*
X10092200Y9157800D01*
X9460000Y8650000D02*
X9740000D01*
X8566000Y8364000D02*
Y8490000D01*
X11196000Y7266000D02*
X11360000Y7430000D01*
X11067540Y7410540D02*
X11260540D01*
X11300000Y7450000D01*
X11050000Y7266000D02*
X11196000D01*
X11050000Y7520000D02*
X11190000D01*
X11220000Y7550000D01*
X11050000Y7393000D02*
X11067540Y7410540D01*
X10357200Y8795400D02*
X10445400D01*
X10490000Y8840000D01*
X10357200Y8845400D02*
X10384700D01*
X10449300Y8910000D01*
X10252200Y8954469D02*
X10277732Y8980000D01*
X10252200Y8947900D02*
Y8954469D01*
X10242200Y8937900D02*
X10252200Y8947900D01*
X10242200Y8910400D02*
Y8937900D01*
X10030000Y9810000D02*
X10075000Y9765000D01*
X9960000Y9580000D02*
X9995000Y9615000D01*
X9230000Y8470000D02*
X9330000D01*
X9190000Y8430000D02*
X9230000Y8470000D01*
X9190000Y7220000D02*
Y8430000D01*
Y7220000D02*
X9272500Y7137500D01*
X10112457D01*
X10367956Y7393000D01*
X8677500Y8240000D02*
Y8252500D01*
X8566000Y8364000D02*
X8677500Y8252500D01*
X10070000Y7240000D02*
X10307625Y7477625D01*
Y8080000D01*
X10033000D02*
X10212375D01*
X10033000D02*
Y8197000D01*
X9880000Y8350000D02*
X10033000Y8197000D01*
X9830000Y8350000D02*
X9880000D01*
X9809700Y8370300D02*
X9830000Y8350000D01*
X9809700Y8370300D02*
Y8511968D01*
X9833131Y8535400D01*
X9839700D01*
X9849700Y8545400D01*
X9877200D01*
X9740000Y8650000D02*
X9785400Y8695400D01*
X9877200D01*
X9382500Y8572500D02*
X9460000Y8650000D01*
X9330000Y8470000D02*
X9360000D01*
X9382500Y8492500D01*
Y8572500D01*
D40*
X12573000Y8287000D02*
X12580000Y8280000D01*
X12573000Y8287000D02*
Y9146500D01*
D41*
X11320000Y10920000D02*
X11451500Y11051500D01*
X11320000Y10210000D02*
Y10920000D01*
X11110000Y10000000D02*
X11320000Y10210000D01*
X11110000Y8960000D02*
Y10000000D01*
X11451500Y11051500D02*
X11811000D01*
X10260000Y10040000D02*
X10417000D01*
X10255000Y10033647D02*
X10260000Y10038647D01*
Y10040000D01*
X10255000Y9890000D02*
Y9905000D01*
Y10033647D01*
X11454500Y10924500D02*
X11811000D01*
X11200000Y8890000D02*
X11210000D01*
X11230000Y8910000D01*
Y10020000D01*
X11390000Y10180000D01*
Y10860000D01*
X11454500Y10924500D01*
X10577500Y9615000D02*
X10667000D01*
X10690000Y9592000D01*
Y9490000D02*
Y9592000D01*
X10577500Y9715000D02*
X10684000D01*
X10503000Y9892000D02*
Y10040000D01*
X10684000Y9715000D02*
X10700000Y9699000D01*
Y9697000D02*
Y9699000D01*
X8945000Y10745000D02*
Y10855000D01*
X8920000Y10880000D02*
X8945000Y10855000D01*
X8792283Y10880000D02*
X8920000D01*
X8774124Y10898160D02*
X8792283Y10880000D01*
X8774124Y10898160D02*
Y10961251D01*
X8758875Y10976500D02*
X8774124Y10961251D01*
X8577900Y10976500D02*
X8758875D01*
X8550000Y10720000D02*
X8580000D01*
X8605000Y10745000D01*
X8755000D01*
X8930000Y10510000D02*
X8945000Y10495000D01*
X8930000Y10510000D02*
Y10555500D01*
X8850000Y10635500D02*
X8930000Y10555500D01*
X8850000Y10635500D02*
Y10745000D01*
X8813690Y10335689D02*
X8865000Y10387000D01*
X8654311Y10335689D02*
X8813690D01*
X8550000Y10440000D02*
X8654311Y10335689D01*
X8865000Y10387000D02*
Y10480000D01*
Y10387000D02*
X8945000Y10307000D01*
X8850000Y10495000D02*
X8865000Y10480000D01*
X8945000Y10120000D02*
Y10307000D01*
X8550000Y10440000D02*
Y10520000D01*
X8945000Y10462500D02*
Y10495000D01*
Y10462500D02*
X9040000Y10367500D01*
Y10350000D02*
Y10367500D01*
D42*
X10815400Y8645400D02*
X10880000Y8710000D01*
X10357200Y8645400D02*
X10815400D01*
X10915400Y8595400D02*
X10950000Y8630000D01*
X10357200Y8595400D02*
X10915400D01*
D43*
X10703000Y9780000D02*
X10800000D01*
Y9670000D02*
Y9780000D01*
X10682000Y9765000D02*
X10700000Y9783000D01*
X10703000Y9780000D01*
X10455000Y9765000D02*
X10577500D01*
X10682000D01*
X10435000Y9745000D02*
X10455000Y9765000D01*
X10380000Y9690000D02*
X10435000Y9745000D01*
X10380000Y9690000D02*
X10405000Y9665000D01*
X10577500D01*
X10790000Y9547856D02*
X10800000Y9557856D01*
Y9670000D01*
X9006812Y8745400D02*
X9877200D01*
X9014600Y8795400D02*
X9877200D01*
X9010000Y8800000D02*
X9014600Y8795400D01*
D44*
X9217282Y10450000D02*
Y10740000D01*
D45*
X13589000Y10035500D02*
X13755983D01*
X13580000Y12000000D02*
X13780000Y11800000D01*
Y10059517D02*
Y11800000D01*
X13755983Y10035500D02*
X13780000Y10059517D01*
X11800500Y10300000D02*
X11811000Y10289500D01*
X11580000Y10300000D02*
X11800500D01*
X11540000Y10340000D02*
X11580000Y10300000D01*
X11540000Y10340000D02*
Y10810000D01*
X11539099Y11197710D02*
X11540000Y11198611D01*
Y12030000D01*
X9880000Y9160000D02*
Y9297500D01*
X9740000Y9437500D02*
Y9570000D01*
Y9437500D02*
X9880000Y9297500D01*
X10190000Y9160000D02*
Y9280000D01*
X10750000Y9160000D02*
X10790000Y9200000D01*
X10190000Y9160000D02*
X10750000D01*
X9770000D02*
X9880000D01*
X9260000Y8917422D02*
X9287422Y8890000D01*
X9490000D01*
X9500000Y8880000D01*
X9760000D01*
X10420000Y7020000D02*
Y7090000D01*
X10630000Y7300000D01*
X10647625Y8270000D02*
X10651983D01*
X10660607Y8261376D01*
Y8189394D02*
Y8261376D01*
X10710000Y7510000D02*
X10778000Y7578000D01*
Y7600000D01*
X10860000D02*
X10923000Y7537000D01*
Y7520000D02*
Y7537000D01*
X10660607Y8189394D02*
X10730000Y8120000D01*
Y8090000D02*
Y8120000D01*
X10790000Y9200000D02*
Y9452144D01*
X10781376Y9462911D02*
X10790000Y9454288D01*
Y9452144D02*
Y9454288D01*
X10717089Y9462911D02*
X10781376D01*
X10690000Y9490000D02*
X10717089Y9462911D01*
D46*
X10508300Y11244752D02*
Y11649600D01*
Y11244752D02*
X10780552Y10972500D01*
X10852500D01*
X10960000Y10865000D01*
Y10855000D02*
Y10865000D01*
X10254300Y11649600D02*
X10508300D01*
X9040000Y10350000D02*
X9140000Y10250000D01*
X9340000D01*
X9382718Y10292718D01*
Y10450000D01*
Y10740000D01*
X9811500D01*
X9820000Y10731500D01*
Y10288500D02*
X9838500Y10270000D01*
X10380000D01*
X10445000Y10205000D01*
X10960000D01*
D47*
X8990000Y8060000D02*
Y8170000D01*
X9080000Y8260000D01*
Y8460000D01*
X9503827Y8576173D02*
X9544827D01*
X9630000Y8491000D01*
X9080000Y8460000D02*
X9200000Y8580000D01*
X9500000D02*
X9503827Y8576173D01*
X9630000Y8491000D02*
X9660000D01*
X8797500Y9387500D02*
Y9400000D01*
X8660000Y9250000D02*
X8797500Y9387500D01*
X8440000Y9250000D02*
X8660000D01*
X8390000Y9200000D02*
X8440000Y9250000D01*
X8390000Y9020000D02*
Y9200000D01*
Y9020000D02*
X8452500Y8957500D01*
X8649462D01*
X8684731Y8992769D01*
Y9034731D01*
X8720000Y9070000D01*
X8820000D01*
D48*
X9690000Y8491000D02*
X9750000Y8551000D01*
X9660000Y8491000D02*
X9690000D01*
X9750000Y8551000D02*
Y8580000D01*
D49*
X8990000Y8820000D02*
Y9170000D01*
X8970000Y9190000D02*
X8990000Y9170000D01*
X8640112Y9190000D02*
X8970000D01*
X8623300Y9173188D02*
X8640112Y9190000D01*
X8623300Y9127300D02*
Y9173188D01*
X8566000Y9070000D02*
X8623300Y9127300D01*
X8973188Y8370000D02*
X8990000Y8386812D01*
Y8728588D01*
X8840000Y8370000D02*
X8973188D01*
X8820000Y8490000D02*
X8830065Y8479935D01*
Y8379935D02*
Y8479935D01*
Y8379935D02*
X8840000Y8370000D01*
X8990000Y8820000D02*
X9010000Y8800000D01*
X8990000Y8728588D02*
X9006812Y8745400D01*
D50*
X10000300Y11649600D02*
D03*
X9746300D02*
D03*
X10254300D02*
D03*
D51*
X10070000Y7494000D02*
D03*
Y7240000D02*
D03*
D52*
X10508300Y11649600D02*
D03*
D53*
X11027300D02*
D03*
X9227300D02*
D03*
D54*
X10647300Y11289600D02*
D03*
D55*
X10884900Y7139000D02*
D03*
X11088100D02*
D03*
X10986500Y7647000D02*
D03*
D56*
X11640000Y10621353D02*
D03*
X12740000Y8970000D02*
D03*
X10300000Y8330000D02*
D03*
X11110000Y8960000D02*
D03*
X10880000Y8710000D02*
D03*
X13630000Y11820000D02*
D03*
X13710001Y10921353D02*
D03*
X11740000Y11810000D02*
D03*
X13739999Y9911353D02*
D03*
X13589999Y9081353D02*
D03*
X13297125Y9079599D02*
D03*
X12070000Y9091353D02*
D03*
X11570000Y9261353D02*
D03*
X11540000Y10810000D02*
D03*
X11539099Y11197710D02*
D03*
X10950000Y8630000D02*
D03*
X11200000Y8890000D02*
D03*
X9200000Y8580000D02*
D03*
X9500000D02*
D03*
X9770000Y9160000D02*
D03*
X10190000Y9280000D02*
D03*
X10630000Y7300000D02*
D03*
X10710000Y7510000D02*
D03*
X9940000Y9350000D02*
D03*
X10040000Y9510000D02*
D03*
X10710000Y9930000D02*
D03*
D57*
X10800000Y9780000D02*
D03*
Y9670000D02*
D03*
X10260000Y10040000D02*
D03*
X10795706Y7263000D02*
D03*
X10530000Y7920000D02*
D03*
X9900000Y11300000D02*
D03*
Y11450000D02*
D03*
X9740000Y11300000D02*
D03*
X9900000Y11150000D02*
D03*
X10070000D02*
D03*
X9740000D02*
D03*
Y11010000D02*
D03*
Y11450000D02*
D03*
X9570000D02*
D03*
Y11300000D02*
D03*
Y11150000D02*
D03*
X9568194Y11013106D02*
D03*
X9410000Y11150000D02*
D03*
X10070000Y11010000D02*
D03*
X9900000D02*
D03*
X10030000Y10050000D02*
D03*
X9410000Y11450000D02*
D03*
Y11300000D02*
D03*
X9270000Y11450000D02*
D03*
Y11300000D02*
D03*
Y11010000D02*
D03*
X9410000D02*
D03*
X9270000Y11150000D02*
D03*
X9120000Y11010000D02*
D03*
Y11450000D02*
D03*
Y11300000D02*
D03*
Y11150000D02*
D03*
X8902514Y9276479D02*
D03*
X8752069Y10393189D02*
D03*
X10000000Y7710000D02*
D03*
Y7820000D02*
D03*
Y7940000D02*
D03*
X9870000Y7600000D02*
D03*
Y7940000D02*
D03*
X9730000Y8060000D02*
D03*
X9480000D02*
D03*
X9600000D02*
D03*
Y7940000D02*
D03*
X9730000D02*
D03*
X9480000D02*
D03*
Y7820000D02*
D03*
X8870000Y8240000D02*
D03*
X9360000Y7940000D02*
D03*
Y7820000D02*
D03*
Y8060000D02*
D03*
X9870000Y7820000D02*
D03*
Y7710000D02*
D03*
X9730000Y7820000D02*
D03*
Y7710000D02*
D03*
Y7490000D02*
D03*
X9870000D02*
D03*
X9730000Y7600000D02*
D03*
X9600000Y7820000D02*
D03*
Y7710000D02*
D03*
X9480000D02*
D03*
X9610000Y7600000D02*
D03*
X9310000Y7580000D02*
D03*
D58*
X10435000Y9635000D02*
D03*
Y9745000D02*
D03*
X10325000D02*
D03*
Y9635000D02*
D03*
X10007200Y8780400D02*
D03*
X10117200D02*
D03*
X10227200D02*
D03*
Y8670400D02*
D03*
X10007200D02*
D03*
X10117200D02*
D03*
X10227200Y8560400D02*
D03*
X10117200D02*
D03*
X10007200D02*
D03*
%TF.MD5,6fe693a25c256160d14c124b9ad22ac1*%
M02*
