%TF.GenerationSoftware,Altium Limited,Altium Designer,26.9.1 (10)*%
G04 Layer_Color=16711935*
G04 Board_Origin=0|0*
%FSLAX45Y45*%
%MOMM*%
%TF.SameCoordinates,5EDF707E-313F-4B3F-A8AA-884A6FACDAFB*%
%TF.FilePolarity,Negative*%
%TF.FileFunction,Soldermask,Bot*%
%TF.Part,Single*%
G01*
G75*
%TA.AperFunction,ViaPad*%
%ADD56C,0.55000*%
%TA.AperFunction,ComponentPad*%
%ADD82C,1.67800*%
%ADD83C,1.70000*%
%ADD84R,1.67800X1.67800*%
%ADD85C,1.45000*%
%ADD86C,1.02500*%
%ADD87C,1.19100*%
%TA.AperFunction,ViaPad*%
%ADD88C,0.75000*%
%ADD89C,0.70000*%
D56*
X10800000Y9780000D02*
D03*
Y9670000D02*
D03*
X10260000Y10040000D02*
D03*
X10795706Y7263000D02*
D03*
X10530000Y7920000D02*
D03*
X9900000Y11300000D02*
D03*
Y11450000D02*
D03*
X9740000Y11300000D02*
D03*
X9900000Y11150000D02*
D03*
X10070000D02*
D03*
X9740000D02*
D03*
Y11010000D02*
D03*
Y11450000D02*
D03*
X9570000D02*
D03*
Y11300000D02*
D03*
Y11150000D02*
D03*
X9568194Y11013106D02*
D03*
X9410000Y11150000D02*
D03*
X10070000Y11010000D02*
D03*
X9900000D02*
D03*
X10030000Y10050000D02*
D03*
X9410000Y11450000D02*
D03*
Y11300000D02*
D03*
X9270000Y11450000D02*
D03*
Y11300000D02*
D03*
Y11010000D02*
D03*
X9410000D02*
D03*
X9270000Y11150000D02*
D03*
X9120000Y11010000D02*
D03*
Y11450000D02*
D03*
Y11300000D02*
D03*
Y11150000D02*
D03*
X8902514Y9276479D02*
D03*
X8752069Y10393189D02*
D03*
X10000000Y7710000D02*
D03*
Y7820000D02*
D03*
Y7940000D02*
D03*
X9870000Y7600000D02*
D03*
Y7940000D02*
D03*
X9730000Y8060000D02*
D03*
X9480000D02*
D03*
X9600000D02*
D03*
Y7940000D02*
D03*
X9730000D02*
D03*
X9480000D02*
D03*
Y7820000D02*
D03*
X8870000Y8240000D02*
D03*
X9360000Y7940000D02*
D03*
Y7820000D02*
D03*
Y8060000D02*
D03*
X9870000Y7820000D02*
D03*
Y7710000D02*
D03*
X9730000Y7820000D02*
D03*
Y7710000D02*
D03*
Y7490000D02*
D03*
X9870000D02*
D03*
X9730000Y7600000D02*
D03*
X9600000Y7820000D02*
D03*
Y7710000D02*
D03*
X9480000D02*
D03*
X9610000Y7600000D02*
D03*
X9310000Y7580000D02*
D03*
D82*
X10000300Y11649600D02*
D03*
X9746300D02*
D03*
X10254300D02*
D03*
D83*
X10070000Y7494000D02*
D03*
Y7240000D02*
D03*
D84*
X10508300Y11649600D02*
D03*
D85*
X11027300D02*
D03*
X9227300D02*
D03*
D86*
X10647300Y11289600D02*
D03*
D87*
X10884900Y7139000D02*
D03*
X11088100D02*
D03*
X10986500Y7647000D02*
D03*
D88*
X11640000Y10621353D02*
D03*
X12740000Y8970000D02*
D03*
X10300000Y8330000D02*
D03*
X11110000Y8960000D02*
D03*
X10880000Y8710000D02*
D03*
X13630000Y11820000D02*
D03*
X13710001Y10921353D02*
D03*
X11740000Y11810000D02*
D03*
X13739999Y9911353D02*
D03*
X13589999Y9081353D02*
D03*
X13297125Y9079599D02*
D03*
X12070000Y9091353D02*
D03*
X11570000Y9261353D02*
D03*
X11540000Y10810000D02*
D03*
X11539099Y11197710D02*
D03*
X10950000Y8630000D02*
D03*
X11200000Y8890000D02*
D03*
X9200000Y8580000D02*
D03*
X9500000D02*
D03*
X9770000Y9160000D02*
D03*
X10190000Y9280000D02*
D03*
X10630000Y7300000D02*
D03*
X10710000Y7510000D02*
D03*
X9940000Y9350000D02*
D03*
X10040000Y9510000D02*
D03*
X10710000Y9930000D02*
D03*
D89*
X10435000Y9635000D02*
D03*
Y9745000D02*
D03*
X10325000D02*
D03*
Y9635000D02*
D03*
X10007200Y8780400D02*
D03*
X10117200D02*
D03*
X10227200D02*
D03*
Y8670400D02*
D03*
X10007200D02*
D03*
X10117200D02*
D03*
X10227200Y8560400D02*
D03*
X10117200D02*
D03*
X10007200D02*
D03*
%TF.MD5,364382b0a127b967717d1845b3b64d99*%
M02*
