%TF.GenerationSoftware,Altium Limited,Altium Designer,26.9.1 (10)*%
G04 Layer_Color=0*
G04 Board_Origin=0|0*
%FSLAX45Y45*%
%MOMM*%
%TF.SameCoordinates,5EDF707E-313F-4B3F-A8AA-884A6FACDAFB*%
%TF.FilePolarity,Positive*%
%TF.FileFunction,Plated,1,2,PTH,Drill*%
%TF.Part,Single*%
G01*
G75*
%TA.AperFunction,ComponentDrill*%
%ADD94C,0.95000*%
%ADD95C,1.00000*%
%TA.AperFunction,ViaDrill,NotFilled*%
%ADD96C,0.35000*%
%ADD97C,0.20000*%
D94*
X10000300Y11649600D02*
D03*
X9746300D02*
D03*
X10508300D02*
D03*
X10254300D02*
D03*
D95*
X10070000Y7494000D02*
D03*
Y7240000D02*
D03*
D96*
X11640000Y10621353D02*
D03*
X12740000Y8970000D02*
D03*
X10300000Y8330000D02*
D03*
X11110000Y8960000D02*
D03*
X10880000Y8710000D02*
D03*
X13630000Y11820000D02*
D03*
X13710001Y10921353D02*
D03*
X11740000Y11810000D02*
D03*
X13739999Y9911353D02*
D03*
X13589999Y9081353D02*
D03*
X13297125Y9079599D02*
D03*
X12070000Y9091353D02*
D03*
X11570000Y9261353D02*
D03*
X11540000Y10810000D02*
D03*
X11539099Y11197710D02*
D03*
X10950000Y8630000D02*
D03*
X11200000Y8890000D02*
D03*
X9200000Y8580000D02*
D03*
X9500000D02*
D03*
X9770000Y9160000D02*
D03*
X10190000Y9280000D02*
D03*
X10630000Y7300000D02*
D03*
X10710000Y7510000D02*
D03*
X9940000Y9350000D02*
D03*
X10040000Y9510000D02*
D03*
X10710000Y9930000D02*
D03*
D97*
X10800000Y9780000D02*
D03*
Y9670000D02*
D03*
X10260000Y10040000D02*
D03*
X10435000Y9635000D02*
D03*
Y9745000D02*
D03*
X10325000D02*
D03*
Y9635000D02*
D03*
X10795706Y7263000D02*
D03*
X10530000Y7920000D02*
D03*
X9900000Y11300000D02*
D03*
Y11450000D02*
D03*
X9740000Y11300000D02*
D03*
X9900000Y11150000D02*
D03*
X10070000D02*
D03*
X9740000D02*
D03*
Y11010000D02*
D03*
Y11450000D02*
D03*
X9570000D02*
D03*
Y11300000D02*
D03*
Y11150000D02*
D03*
X9568194Y11013106D02*
D03*
X9410000Y11150000D02*
D03*
X10070000Y11010000D02*
D03*
X9900000D02*
D03*
X10030000Y10050000D02*
D03*
X9410000Y11450000D02*
D03*
Y11300000D02*
D03*
X9270000Y11450000D02*
D03*
Y11300000D02*
D03*
Y11010000D02*
D03*
X9410000D02*
D03*
X9270000Y11150000D02*
D03*
X9120000Y11010000D02*
D03*
Y11450000D02*
D03*
Y11300000D02*
D03*
Y11150000D02*
D03*
X8902514Y9276479D02*
D03*
X8752069Y10393189D02*
D03*
X10007200Y8780400D02*
D03*
X10117200D02*
D03*
X10227200D02*
D03*
Y8670400D02*
D03*
X10007200D02*
D03*
X10117200D02*
D03*
X10227200Y8560400D02*
D03*
X10117200D02*
D03*
X10000000Y7710000D02*
D03*
Y7820000D02*
D03*
X10007200Y8560400D02*
D03*
X10000000Y7940000D02*
D03*
X9870000Y7600000D02*
D03*
Y7940000D02*
D03*
X9730000Y8060000D02*
D03*
X9480000D02*
D03*
X9600000D02*
D03*
Y7940000D02*
D03*
X9730000D02*
D03*
X9480000D02*
D03*
Y7820000D02*
D03*
X8870000Y8240000D02*
D03*
X9360000Y7940000D02*
D03*
Y7820000D02*
D03*
Y8060000D02*
D03*
X9870000Y7820000D02*
D03*
Y7710000D02*
D03*
X9730000Y7820000D02*
D03*
Y7710000D02*
D03*
Y7490000D02*
D03*
X9870000D02*
D03*
X9730000Y7600000D02*
D03*
X9600000Y7820000D02*
D03*
Y7710000D02*
D03*
X9480000D02*
D03*
X9610000Y7600000D02*
D03*
X9310000Y7580000D02*
D03*
%TF.MD5,35838fa03a1b3c94d9e0f7e4f1e299f2*%
M02*
