%TF.GenerationSoftware,Altium Limited,Altium Designer,26.9.1 (10)*%
G04 Layer_Color=65535*
G04 Board_Origin=0|0*
%FSLAX45Y45*%
%MOMM*%
%TF.SameCoordinates,5EDF707E-313F-4B3F-A8AA-884A6FACDAFB*%
%TF.FilePolarity,Positive*%
%TF.FileFunction,Legend,Top*%
%TF.Part,Single*%
G01*
G75*
%TA.AperFunction,NonConductor*%
%ADD59C,0.20000*%
%ADD60C,0.10000*%
%ADD61C,0.25000*%
%ADD62C,0.30000*%
%ADD63C,0.12700*%
%ADD64C,0.16000*%
D59*
X11650000Y11680000D02*
G03*
X11640000Y11680000I-5000J0D01*
G01*
D02*
G03*
X11650000Y11680000I5000J0D01*
G01*
D02*
G03*
X11640000Y11680000I-5000J0D01*
G01*
X9167300Y11219600D02*
X10508300D01*
X9167300D02*
Y11449600D01*
X10808300Y11219600D02*
X11087300D01*
Y11449600D01*
Y11849700D02*
Y12079600D01*
X9167300D02*
X11087300D01*
X9167300Y11849700D02*
Y12079600D01*
X12780000Y7190000D02*
Y8150000D01*
X12380000Y7190000D02*
Y8150000D01*
X10805000Y10392500D02*
Y10667500D01*
X11115000Y10392500D02*
Y10667500D01*
X8953000Y8420000D02*
Y9140000D01*
X8433000Y8420000D02*
Y9140000D01*
X8923000D02*
X8953000D01*
X8923000Y8420000D02*
X8953000D01*
X8433000D02*
X8463000D01*
X8433000Y9140000D02*
X8463000D01*
X9147190Y8854690D02*
Y9145310D01*
X9372810Y8854690D02*
Y9145310D01*
X9534393Y9383624D02*
X9705607D01*
X9534393Y9236376D02*
X9705607D01*
X10090000Y9088900D02*
X10190000D01*
X10090000Y9230000D02*
X10190000D01*
X9880000Y9231100D02*
X9980000D01*
X9880000Y9090000D02*
X9980000D01*
X10716376Y9416376D02*
Y9583624D01*
X10863624Y9416376D02*
Y9583624D01*
X9847200Y8897900D02*
Y8940400D01*
X9889700D01*
X10344700D02*
X10387200D01*
Y8897900D02*
Y8940400D01*
Y8400400D02*
Y8442900D01*
X10344700Y8400400D02*
X10387200D01*
X9847200D02*
Y8442900D01*
Y8400400D02*
X9889700D01*
X10165000Y9475000D02*
X10197500D01*
X10165000D02*
Y9507500D01*
X10562500Y9475000D02*
X10595000D01*
Y9507500D01*
Y9872500D02*
Y9905000D01*
X10562500D02*
X10595000D01*
X10165000D02*
X10197500D01*
X10165000Y9872500D02*
Y9905000D01*
X10602500Y8162500D02*
X10657500D01*
X10602500Y8017500D02*
X10657500D01*
X8662563Y11523589D02*
X8747238D01*
X8662563Y11699411D02*
X8747238D01*
X10514393Y8196376D02*
X10685607D01*
X10514393Y8343624D02*
X10685607D01*
X10017000Y10281500D02*
Y10738500D01*
X9623000Y10281500D02*
X9676000D01*
X9964000D02*
X10017000D01*
X9623000D02*
Y10738500D01*
X9676000D01*
X9964000D02*
X10017000D01*
X9962500Y9807500D02*
Y9912500D01*
X10098066Y9806967D02*
Y9911967D01*
X9159393Y10848107D02*
X9440606D01*
X9159393Y10631893D02*
X9440606D01*
X10525000Y10266500D02*
X10577000D01*
X10525000Y10723500D02*
X10577000D01*
X10183000D02*
X10235000D01*
X10183000Y10266500D02*
X10235000D01*
X10577000D02*
Y10723500D01*
X10183000Y10266500D02*
Y10723500D01*
X8720893Y10902876D02*
X8892107D01*
X8720893Y11050123D02*
X8892107D01*
X8461420Y10907876D02*
X8608667D01*
X8461420Y11045123D02*
X8608667D01*
X8662563Y11206089D02*
X8747238D01*
X8662563Y11381911D02*
X8747238D01*
X8662563Y11815689D02*
X8747238D01*
X8662563Y11991511D02*
X8747238D01*
X8477500Y10592500D02*
Y10647500D01*
X8622500Y10592500D02*
Y10647500D01*
X9159393Y10558107D02*
X9440606D01*
X9159393Y10341893D02*
X9440606D01*
X10174393Y8153624D02*
X10345607D01*
X10174393Y8006376D02*
X10345607D01*
X9402500Y8342500D02*
Y8397500D01*
X9257500Y8342500D02*
Y8397500D01*
X9732500Y8363500D02*
Y8418500D01*
X9587500Y8363500D02*
Y8418500D01*
X9427500Y8952500D02*
Y9007500D01*
X9572500Y8952500D02*
Y9007500D01*
X8705000Y10592500D02*
Y10647500D01*
X8995000D01*
Y10592500D02*
Y10647500D01*
X8705000Y10592500D02*
X8995000D01*
X8690000Y10432500D02*
Y10557500D01*
D60*
X10508250Y11153300D02*
G03*
X10508250Y11163400I0J5050D01*
G01*
X10508300D02*
G03*
X10508300Y11153400I0J-5000D01*
G01*
X12560000Y8430000D02*
G03*
X12560000Y8420000I0J-5000D01*
G01*
D02*
G03*
X12560000Y8430000I0J5000D01*
G01*
X11811000Y11813500D02*
X13589000D01*
X11811000D02*
X13589000D01*
X11811000Y9146500D02*
X12200000D01*
X11811000D02*
X12200000D01*
X13200000D02*
X13589000D01*
X13200000D02*
X13589000D01*
X10320000Y7017000D02*
Y7717000D01*
X8540000D02*
X10320000D01*
X8540000Y7017000D02*
Y7717000D01*
Y7017000D02*
X10320000D01*
D61*
X8580500Y9200000D02*
G03*
X8580500Y9200000I-12500J0D01*
G01*
X9794700Y8925400D02*
G03*
X9794700Y8925400I-12500J0D01*
G01*
X10267500Y9395000D02*
G03*
X10267500Y9395000I-12500J0D01*
G01*
X9832500Y10892500D02*
G03*
X9832500Y10892500I-12500J0D01*
G01*
D62*
X10626500Y7518000D02*
G03*
X10626500Y7518000I-15000J0D01*
G01*
D63*
X8800000Y9461500D02*
X8900000D01*
X8800000Y9338500D02*
X8900000D01*
X8680000Y8301500D02*
X8780000D01*
X8680000Y8178500D02*
X8780000D01*
X11291300Y6897700D02*
Y7888300D01*
X10681700Y6897700D02*
X11291300D01*
X10681700D02*
Y7888300D01*
X11291300D01*
D64*
X10516693Y8390016D02*
Y8489984D01*
X10566677D01*
X10583338Y8473322D01*
Y8440000D01*
X10566677Y8423338D01*
X10516693D01*
X10550016D02*
X10583338Y8390016D01*
X10683306Y8489984D02*
X10616661D01*
Y8440000D01*
X10649984Y8456661D01*
X10666645D01*
X10683306Y8440000D01*
Y8406677D01*
X10666645Y8390016D01*
X10633323D01*
X10616661Y8406677D01*
X12876711Y6940016D02*
Y7006661D01*
X12910033Y7039984D01*
X12943355Y7006661D01*
Y6940016D01*
Y6990000D01*
X12876711D01*
X12976677Y6940016D02*
Y7039984D01*
X13043323Y6940016D01*
Y7039984D01*
X13076645D02*
X13143291D01*
X13109969D01*
Y6940016D01*
X9780016Y9433307D02*
X9879984D01*
Y9383323D01*
X9863322Y9366661D01*
X9830000D01*
X9813339Y9383323D01*
Y9433307D01*
Y9399984D02*
X9780016Y9366661D01*
Y9283355D02*
X9879984D01*
X9830000Y9333339D01*
Y9266694D01*
X10266693Y9110016D02*
Y9209984D01*
X10316677D01*
X10333338Y9193322D01*
Y9160000D01*
X10316677Y9143339D01*
X10266693D01*
X10300016D02*
X10333338Y9110016D01*
X10366661Y9193322D02*
X10383323Y9209984D01*
X10416645D01*
X10433306Y9193322D01*
Y9176661D01*
X10416645Y9160000D01*
X10399984D01*
X10416645D01*
X10433306Y9143339D01*
Y9126677D01*
X10416645Y9110016D01*
X10383323D01*
X10366661Y9126677D01*
X10016694Y7860016D02*
Y7959984D01*
X10066678D01*
X10083339Y7943322D01*
Y7910000D01*
X10066678Y7893339D01*
X10016694D01*
X10050016D02*
X10083339Y7860016D01*
X10183307D02*
X10116662D01*
X10183307Y7926661D01*
Y7943322D01*
X10166645Y7959984D01*
X10133323D01*
X10116662Y7943322D01*
X8293339Y7459984D02*
X8260016D01*
X8276677D01*
Y7376677D01*
X8260016Y7360016D01*
X8243355D01*
X8226693Y7376677D01*
X8326661Y7443322D02*
X8343323Y7459984D01*
X8376645D01*
X8393306Y7443322D01*
Y7426661D01*
X8376645Y7410000D01*
X8359984D01*
X8376645D01*
X8393306Y7393339D01*
Y7376677D01*
X8376645Y7360016D01*
X8343323D01*
X8326661Y7376677D01*
X10923339Y8029984D02*
X10890016D01*
X10906677D01*
Y7946678D01*
X10890016Y7930016D01*
X10873355D01*
X10856694Y7946678D01*
X11023306Y7930016D02*
X10956661D01*
X11023306Y7996661D01*
Y8013323D01*
X11006645Y8029984D01*
X10973323D01*
X10956661Y8013323D01*
X11580016Y9555040D02*
Y9588363D01*
Y9571702D01*
X11679983D01*
Y9555040D01*
Y9588363D01*
X11596677Y9704992D02*
X11580016Y9688331D01*
Y9655008D01*
X11596677Y9638347D01*
X11663322D01*
X11679983Y9655008D01*
Y9688331D01*
X11663322Y9704992D01*
X11679983Y9804960D02*
Y9738315D01*
X11613338Y9804960D01*
X11596677D01*
X11580016Y9788298D01*
Y9754976D01*
X11596677Y9738315D01*
X9918985Y8240323D02*
X9902324Y8256984D01*
X9869002D01*
X9852340Y8240323D01*
Y8173678D01*
X9869002Y8157016D01*
X9902324D01*
X9918985Y8173678D01*
X9952308Y8157016D02*
X9985631D01*
X9968970D01*
Y8256984D01*
X9952308Y8240323D01*
X10102260Y8157016D02*
X10035615D01*
X10102260Y8223661D01*
Y8240323D01*
X10085599Y8256984D01*
X10052276D01*
X10035615Y8240323D01*
X10893323Y8961653D02*
X10909984Y8978314D01*
Y9011637D01*
X10893323Y9028298D01*
X10826678D01*
X10810016Y9011637D01*
Y8978314D01*
X10826678Y8961653D01*
X10810016Y8928330D02*
Y8895008D01*
Y8911669D01*
X10909984D01*
X10893323Y8928330D01*
X10810016Y8845024D02*
Y8811701D01*
Y8828362D01*
X10909984D01*
X10893323Y8845024D01*
X10883322Y9848315D02*
X10899984Y9864976D01*
Y9898298D01*
X10883322Y9914960D01*
X10816677D01*
X10800016Y9898298D01*
Y9864976D01*
X10816677Y9848315D01*
X10800016Y9814992D02*
Y9781669D01*
Y9798330D01*
X10899984D01*
X10883322Y9814992D01*
Y9731685D02*
X10899984Y9715024D01*
Y9681701D01*
X10883322Y9665040D01*
X10816677D01*
X10800016Y9681701D01*
Y9715024D01*
X10816677Y9731685D01*
X10883322D01*
X9893322Y9876661D02*
X9909984Y9893323D01*
Y9926645D01*
X9893322Y9943307D01*
X9826677D01*
X9810016Y9926645D01*
Y9893323D01*
X9826677Y9876661D01*
Y9843339D02*
X9810016Y9826677D01*
Y9793355D01*
X9826677Y9776694D01*
X9893322D01*
X9909984Y9793355D01*
Y9826677D01*
X9893322Y9843339D01*
X9876661D01*
X9860000Y9826677D01*
Y9776694D01*
X10643339Y10083322D02*
X10626678Y10099984D01*
X10593355D01*
X10576694Y10083322D01*
Y10016677D01*
X10593355Y10000016D01*
X10626678D01*
X10643339Y10016677D01*
X10676661Y10083322D02*
X10693323Y10099984D01*
X10726645D01*
X10743306Y10083322D01*
Y10066661D01*
X10726645Y10050000D01*
X10743306Y10033339D01*
Y10016677D01*
X10726645Y10000016D01*
X10693323D01*
X10676661Y10016677D01*
Y10033339D01*
X10693323Y10050000D01*
X10676661Y10066661D01*
Y10083322D01*
X10693323Y10050000D02*
X10726645D01*
X8880000Y12179984D02*
X8846678D01*
X8863339D01*
Y12096678D01*
X8846678Y12080016D01*
X8830016D01*
X8813355Y12096678D01*
X8913323Y12080016D02*
X8946645D01*
X8929984D01*
Y12179984D01*
X8913323Y12163323D01*
X8423355Y9359984D02*
Y9343322D01*
X8456677Y9310000D01*
X8490000Y9343322D01*
Y9359984D01*
X8456677Y9310000D02*
Y9260016D01*
X8523323D02*
X8556645D01*
X8539984D01*
Y9359984D01*
X8523323Y9343322D01*
X8409984Y10831718D02*
X8310016D01*
Y10881702D01*
X8326678Y10898363D01*
X8360000D01*
X8376661Y10881702D01*
Y10831718D01*
Y10865041D02*
X8409984Y10898363D01*
Y10948347D02*
X8326678D01*
X8360000D01*
Y10931686D01*
Y10965008D01*
Y10948347D01*
X8326678D01*
X8310016Y10965008D01*
Y11014992D02*
X8409984D01*
Y11064976D01*
X8393323Y11081637D01*
X8376661D01*
X8360000D01*
X8343339Y11064976D01*
Y11014992D01*
X8326678Y11131621D02*
X8343339D01*
Y11114960D01*
Y11148283D01*
Y11131621D01*
X8393323D01*
X8409984Y11148283D01*
X8955057Y10930016D02*
Y11029984D01*
X9005040D01*
X9021702Y11013322D01*
Y10980000D01*
X9005040Y10963338D01*
X8955057D01*
X8988379D02*
X9021702Y10930016D01*
X9071686D02*
Y11013322D01*
Y10980000D01*
X9055024D01*
X9088347D01*
X9071686D01*
Y11013322D01*
X9088347Y11029984D01*
X9138331D02*
Y10930016D01*
X9188315D01*
X9204976Y10946677D01*
Y10963338D01*
Y10980000D01*
X9188315Y10996661D01*
X9138331D01*
X9238299Y11029984D02*
Y10930016D01*
X9288282D01*
X9304944Y10946677D01*
Y10963338D01*
Y10980000D01*
X9288282Y10996661D01*
X9238299D01*
X9519920Y9461500D02*
Y9561468D01*
X9569904D01*
X9586565Y9544806D01*
Y9511484D01*
X9569904Y9494823D01*
X9519920D01*
X9553243D02*
X9586565Y9461500D01*
X9619888D02*
X9653210D01*
X9636549D01*
Y9561468D01*
X9619888Y9544806D01*
X8390455Y10081084D02*
Y9981116D01*
X8457100D01*
X8490423D02*
X8523745D01*
X8507084D01*
Y10081084D01*
X8490423Y10064423D01*
X11252100Y10910184D02*
X11185455D01*
Y10860200D01*
X11218777D01*
X11185455D01*
Y10810216D01*
X11285423D02*
X11318745D01*
X11302084D01*
Y10910184D01*
X11285423Y10893523D01*
X9726694Y10559984D02*
Y10460016D01*
X9776677D01*
X9793339Y10476678D01*
Y10543323D01*
X9776677Y10559984D01*
X9726694D01*
X9893306Y10460016D02*
X9826661D01*
X9893306Y10526661D01*
Y10543323D01*
X9876645Y10559984D01*
X9843323D01*
X9826661Y10543323D01*
X10303355Y10559984D02*
Y10460016D01*
X10353339D01*
X10370000Y10476678D01*
Y10543323D01*
X10353339Y10559984D01*
X10303355D01*
X10403323Y10460016D02*
X10436645D01*
X10419984D01*
Y10559984D01*
X10403323Y10543323D01*
X8326677Y11448379D02*
X8310016Y11431718D01*
Y11398395D01*
X8326677Y11381734D01*
X8393322D01*
X8409984Y11398395D01*
Y11431718D01*
X8393322Y11448379D01*
X8409984Y11498363D02*
Y11531685D01*
X8393322Y11548346D01*
X8360000D01*
X8343339Y11531685D01*
Y11498363D01*
X8360000Y11481701D01*
X8393322D01*
X8409984Y11498363D01*
X8343339Y11581669D02*
X8393322D01*
X8409984Y11598331D01*
Y11648314D01*
X8343339D01*
X8326677Y11698298D02*
X8343339D01*
Y11681637D01*
Y11714960D01*
Y11698298D01*
X8393322D01*
X8409984Y11714960D01*
Y11764943D02*
Y11798266D01*
Y11781605D01*
X8310016D01*
X8326677Y11764943D01*
X9201701Y10103322D02*
X9185040Y10119984D01*
X9151718D01*
X9135056Y10103322D01*
Y10036677D01*
X9151718Y10020016D01*
X9185040D01*
X9201701Y10036677D01*
X9235024Y10020016D02*
X9268347D01*
X9251686D01*
Y10086661D01*
X9235024D01*
X9318331Y10020016D02*
Y10086661D01*
X9368315D01*
X9384976Y10070000D01*
Y10020016D01*
X9484943D02*
X9418298D01*
X9484943Y10086661D01*
Y10103322D01*
X9468282Y10119984D01*
X9434960D01*
X9418298Y10103322D01*
X9208363Y10263323D02*
X9191702Y10279984D01*
X9158379D01*
X9141718Y10263323D01*
Y10196678D01*
X9158379Y10180016D01*
X9191702D01*
X9208363Y10196678D01*
X9241686Y10180016D02*
X9275008D01*
X9258347D01*
Y10246661D01*
X9241686D01*
X9324992Y10180016D02*
Y10246661D01*
X9374976D01*
X9391637Y10230000D01*
Y10180016D01*
X9424960D02*
X9458282D01*
X9441621D01*
Y10279984D01*
X9424960Y10263323D01*
X8346677Y10490032D02*
X8330016Y10473371D01*
Y10440048D01*
X8346677Y10423387D01*
X8413322D01*
X8429984Y10440048D01*
Y10473371D01*
X8413322Y10490032D01*
X8330016Y10523355D02*
X8429984D01*
Y10573339D01*
X8413322Y10590000D01*
X8396661D01*
X8380000D01*
X8363339Y10573339D01*
Y10523355D01*
X8429984Y10623322D02*
Y10673306D01*
X8413322Y10689967D01*
X8396661Y10673306D01*
Y10639984D01*
X8380000Y10623322D01*
X8363339Y10639984D01*
Y10689967D01*
X8346677Y10739952D02*
X8363339D01*
Y10723290D01*
Y10756613D01*
Y10739952D01*
X8413322D01*
X8429984Y10756613D01*
X8504278Y8222239D02*
X8487616Y8205577D01*
Y8172255D01*
X8504278Y8155594D01*
X8570923D01*
X8587584Y8172255D01*
Y8205577D01*
X8570923Y8222239D01*
X8487616Y8255561D02*
Y8322206D01*
X8504278D01*
X8570923Y8255561D01*
X8587584D01*
X8844885Y9621006D02*
X8828224Y9637668D01*
X8794901D01*
X8778240Y9621006D01*
Y9554361D01*
X8794901Y9537700D01*
X8828224D01*
X8844885Y9554361D01*
X8944853Y9637668D02*
X8911530Y9621006D01*
X8878208Y9587684D01*
Y9554361D01*
X8894869Y9537700D01*
X8928192D01*
X8944853Y9554361D01*
Y9571023D01*
X8928192Y9587684D01*
X8878208D01*
X9326038Y8149323D02*
X9309377Y8165984D01*
X9276055D01*
X9259393Y8149323D01*
Y8082678D01*
X9276055Y8066016D01*
X9309377D01*
X9326038Y8082678D01*
X9426006Y8165984D02*
X9359361D01*
Y8116000D01*
X9392684Y8132661D01*
X9409345D01*
X9426006Y8116000D01*
Y8082678D01*
X9409345Y8066016D01*
X9376023D01*
X9359361Y8082678D01*
X9668739Y8194123D02*
X9652077Y8210784D01*
X9618755D01*
X9602094Y8194123D01*
Y8127478D01*
X9618755Y8110816D01*
X9652077D01*
X9668739Y8127478D01*
X9752045Y8110816D02*
Y8210784D01*
X9702061Y8160800D01*
X9768706D01*
X10843339Y8253323D02*
X10826678Y8269984D01*
X10793355D01*
X10776694Y8253323D01*
Y8186678D01*
X10793355Y8170016D01*
X10826678D01*
X10843339Y8186678D01*
X10876662Y8253323D02*
X10893323Y8269984D01*
X10926645D01*
X10943307Y8253323D01*
Y8236661D01*
X10926645Y8220000D01*
X10909984D01*
X10926645D01*
X10943307Y8203339D01*
Y8186678D01*
X10926645Y8170016D01*
X10893323D01*
X10876662Y8186678D01*
X9703322Y9066661D02*
X9719984Y9083322D01*
Y9116644D01*
X9703322Y9133306D01*
X9636677D01*
X9620016Y9116644D01*
Y9083322D01*
X9636677Y9066661D01*
X9620016Y8966693D02*
Y9033338D01*
X9686661Y8966693D01*
X9703322D01*
X9719984Y8983354D01*
Y9016677D01*
X9703322Y9033338D01*
X9280000Y9293323D02*
X9263339Y9309984D01*
X9230016D01*
X9213355Y9293323D01*
Y9226678D01*
X9230016Y9210016D01*
X9263339D01*
X9280000Y9226678D01*
X9313323Y9210016D02*
X9346645D01*
X9329984D01*
Y9309984D01*
X9313323Y9293323D01*
%TF.MD5,4ede447c6446cc3330f3213b6df4d91d*%
M02*
