%TF.GenerationSoftware,Altium Limited,Altium Designer,26.9.1 (10)*%
G04 Layer_Color=8388736*
G04 Board_Origin=0|0*
%FSLAX45Y45*%
%MOMM*%
%TF.SameCoordinates,5EDF707E-313F-4B3F-A8AA-884A6FACDAFB*%
%TF.FilePolarity,Negative*%
%TF.FileFunction,Soldermask,Top*%
%TF.Part,Single*%
G01*
G75*
%TA.AperFunction,SMDPad,CuDef*%
%ADD13R,0.75964X0.67248*%
%ADD20R,0.67248X0.71535*%
%ADD23R,0.70000X1.30000*%
%ADD25R,0.50000X0.50000*%
%ADD26R,1.30000X0.70000*%
%ADD27R,1.30574X1.75822*%
%ADD28R,1.15776X1.36213*%
%ADD29R,1.45620X1.25464*%
%ADD33R,2.80000X3.00000*%
%ADD35R,0.61535X0.57247*%
%ADD37R,0.50000X0.60000*%
%ADD38R,2.13000X2.08000*%
%TA.AperFunction,ViaPad*%
%ADD56C,0.55000*%
%TA.AperFunction,SMDPad,CuDef*%
%ADD65R,1.72400X1.21600*%
%ADD66R,1.21600X1.72400*%
%ADD67O,0.45000X1.00000*%
%ADD68R,4.20000X2.00000*%
%ADD69O,1.00000X0.45000*%
%ADD70R,0.82000X0.86000*%
%ADD71R,2.50000X2.50000*%
%ADD72R,0.86000X0.82000*%
%ADD73R,1.05320X0.55320*%
%ADD74R,2.80000X2.90000*%
%TA.AperFunction,BGAPad,CuDef*%
%ADD75C,0.98700*%
%TA.AperFunction,SMDPad,CuDef*%
%ADD76R,0.55000X1.00000*%
%ADD77R,0.80000X1.45000*%
%ADD78R,0.55400X0.80400*%
%ADD79R,3.70000X3.70000*%
%ADD80R,1.60000X1.80000*%
%ADD81R,1.40000X3.00000*%
%TA.AperFunction,ComponentPad*%
%ADD82C,1.67800*%
%ADD83C,1.70000*%
%ADD84R,1.67800X1.67800*%
%ADD85C,1.45000*%
%ADD86C,1.02500*%
%ADD87C,1.19100*%
%TA.AperFunction,ViaPad*%
%ADD88C,0.75000*%
%ADD89C,0.70000*%
D13*
X10552375Y8270000D02*
D03*
X9572375Y9310000D02*
D03*
X8854125Y10976500D02*
D03*
X9667625Y9310000D02*
D03*
X10647625Y8270000D02*
D03*
X8758875Y10976500D02*
D03*
X10307625Y8080000D02*
D03*
X10212375D02*
D03*
D20*
X10790000Y9547856D02*
D03*
Y9452144D02*
D03*
D23*
X10530000Y8090000D02*
D03*
X10730000D02*
D03*
D25*
X10030000Y9910000D02*
D03*
Y9810000D02*
D03*
D26*
X9500000Y9080000D02*
D03*
X9660000Y8291000D02*
D03*
X9330000Y8270000D02*
D03*
X9660000Y8491000D02*
D03*
X9500000Y8880000D02*
D03*
X8550000Y10520000D02*
D03*
Y10720000D02*
D03*
X9330000Y8470000D02*
D03*
D27*
X8842524Y11903600D02*
D03*
Y11611500D02*
D03*
Y11294000D02*
D03*
X8567276Y11903600D02*
D03*
Y11611500D02*
D03*
Y11294000D02*
D03*
D28*
X9217282Y10740000D02*
D03*
Y10450000D02*
D03*
X9382718Y10740000D02*
D03*
Y10450000D02*
D03*
D29*
X9260000Y9082578D02*
D03*
Y8917422D02*
D03*
D33*
X10960000Y10855000D02*
D03*
Y10205000D02*
D03*
D35*
X8492187Y10976500D02*
D03*
X8577900D02*
D03*
D37*
X10190000Y9160000D02*
D03*
X9880000D02*
D03*
X9980000D02*
D03*
X10090000D02*
D03*
D38*
X9820000Y10731500D02*
D03*
Y10288500D02*
D03*
D56*
X10800000Y9780000D02*
D03*
Y9670000D02*
D03*
X10260000Y10040000D02*
D03*
X10795706Y7263000D02*
D03*
X10530000Y7920000D02*
D03*
X9900000Y11300000D02*
D03*
Y11450000D02*
D03*
X9740000Y11300000D02*
D03*
X9900000Y11150000D02*
D03*
X10070000D02*
D03*
X9740000D02*
D03*
Y11010000D02*
D03*
Y11450000D02*
D03*
X9570000D02*
D03*
Y11300000D02*
D03*
Y11150000D02*
D03*
X9568194Y11013106D02*
D03*
X9410000Y11150000D02*
D03*
X10070000Y11010000D02*
D03*
X9900000D02*
D03*
X10030000Y10050000D02*
D03*
X9410000Y11450000D02*
D03*
Y11300000D02*
D03*
X9270000Y11450000D02*
D03*
Y11300000D02*
D03*
Y11010000D02*
D03*
X9410000D02*
D03*
X9270000Y11150000D02*
D03*
X9120000Y11010000D02*
D03*
Y11450000D02*
D03*
Y11300000D02*
D03*
Y11150000D02*
D03*
X8902514Y9276479D02*
D03*
X8752069Y10393189D02*
D03*
X10000000Y7710000D02*
D03*
Y7820000D02*
D03*
Y7940000D02*
D03*
X9870000Y7600000D02*
D03*
Y7940000D02*
D03*
X9730000Y8060000D02*
D03*
X9480000D02*
D03*
X9600000D02*
D03*
Y7940000D02*
D03*
X9730000D02*
D03*
X9480000D02*
D03*
Y7820000D02*
D03*
X8870000Y8240000D02*
D03*
X9360000Y7940000D02*
D03*
Y7820000D02*
D03*
Y8060000D02*
D03*
X9870000Y7820000D02*
D03*
Y7710000D02*
D03*
X9730000Y7820000D02*
D03*
Y7710000D02*
D03*
Y7490000D02*
D03*
X9870000D02*
D03*
X9730000Y7600000D02*
D03*
X9600000Y7820000D02*
D03*
Y7710000D02*
D03*
X9480000D02*
D03*
X9610000Y7600000D02*
D03*
X9310000Y7580000D02*
D03*
D65*
X13589000Y11686500D02*
D03*
Y9908500D02*
D03*
X11811000Y11686500D02*
D03*
X13589000Y10924500D02*
D03*
X11811000Y10797500D02*
D03*
Y10416500D02*
D03*
X13589000Y9273500D02*
D03*
X11811000D02*
D03*
X13589000Y10035500D02*
D03*
X11811000Y10289500D02*
D03*
X13589000Y11559500D02*
D03*
Y11432500D02*
D03*
Y11305500D02*
D03*
Y11178500D02*
D03*
Y11051500D02*
D03*
Y10797500D02*
D03*
Y10670500D02*
D03*
Y10543500D02*
D03*
Y10416500D02*
D03*
Y10289500D02*
D03*
Y10162500D02*
D03*
Y9781500D02*
D03*
Y9654500D02*
D03*
Y9527500D02*
D03*
Y9400500D02*
D03*
X11811000D02*
D03*
Y9527500D02*
D03*
Y9654500D02*
D03*
Y9781500D02*
D03*
Y9908500D02*
D03*
Y10035500D02*
D03*
Y10162500D02*
D03*
Y10543500D02*
D03*
Y10670500D02*
D03*
Y10924500D02*
D03*
Y11051500D02*
D03*
Y11178500D02*
D03*
Y11305500D02*
D03*
Y11432500D02*
D03*
Y11559500D02*
D03*
D66*
X12319000Y9146500D02*
D03*
X12953999D02*
D03*
X13081000D02*
D03*
X12700000D02*
D03*
X12446000D02*
D03*
X12827000D02*
D03*
X12573000D02*
D03*
D67*
X10142200Y8430400D02*
D03*
X10292200D02*
D03*
X9942200Y8910400D02*
D03*
X9992200D02*
D03*
X10042200D02*
D03*
X9942200Y8430400D02*
D03*
X9992200D02*
D03*
X10042200D02*
D03*
X10092200D02*
D03*
X10192200D02*
D03*
X10242200D02*
D03*
X10292200Y8910400D02*
D03*
X10242200D02*
D03*
X10192200D02*
D03*
X10142200D02*
D03*
X10092200D02*
D03*
D68*
X12580000Y8280000D02*
D03*
Y7060000D02*
D03*
D69*
X10357200Y8645400D02*
D03*
X9877200Y8595400D02*
D03*
Y8645400D02*
D03*
Y8845400D02*
D03*
X10357200Y8495400D02*
D03*
X9877200Y8795400D02*
D03*
Y8745400D02*
D03*
Y8545400D02*
D03*
Y8495400D02*
D03*
X10357200Y8545400D02*
D03*
Y8695400D02*
D03*
Y8745400D02*
D03*
Y8795400D02*
D03*
Y8845400D02*
D03*
X9877200Y8695400D02*
D03*
X10357200Y8595400D02*
D03*
D70*
X10700000Y9783000D02*
D03*
Y9697000D02*
D03*
D71*
X10380000Y10720000D02*
D03*
Y10270000D02*
D03*
D72*
X10417000Y10040000D02*
D03*
X9947000Y8080000D02*
D03*
X10503000Y10040000D02*
D03*
X10033000Y8080000D02*
D03*
D73*
X10577500Y9765000D02*
D03*
Y9665000D02*
D03*
Y9615000D02*
D03*
X10182500Y9565000D02*
D03*
X10577500D02*
D03*
Y9715000D02*
D03*
Y9815000D02*
D03*
X10182500Y9615000D02*
D03*
Y9665000D02*
D03*
Y9715000D02*
D03*
Y9765000D02*
D03*
Y9815000D02*
D03*
D74*
X10380000Y9690000D02*
D03*
D75*
X10923000Y7266000D02*
D03*
Y7520000D02*
D03*
X11050000Y7266000D02*
D03*
Y7393000D02*
D03*
X10923000D02*
D03*
X11050000Y7520000D02*
D03*
D76*
X10255000Y9890000D02*
D03*
Y9490000D02*
D03*
X10305000D02*
D03*
X10355000D02*
D03*
X10405000D02*
D03*
X10455000D02*
D03*
X10505000D02*
D03*
X10305000Y9890000D02*
D03*
X10355000D02*
D03*
X10405000D02*
D03*
X10455000D02*
D03*
X10505000D02*
D03*
D77*
X8755000Y10495000D02*
D03*
X8850000D02*
D03*
X8945000D02*
D03*
Y10745000D02*
D03*
X8850000D02*
D03*
X8755000D02*
D03*
D78*
X8902500Y9400000D02*
D03*
X8782500Y8240000D02*
D03*
X8797500Y9400000D02*
D03*
X8677500Y8240000D02*
D03*
D79*
X10117200Y8670400D02*
D03*
D80*
X8820000Y9070000D02*
D03*
Y8490000D02*
D03*
X8566000D02*
D03*
Y9070000D02*
D03*
D81*
X8655000Y10120000D02*
D03*
X8945000D02*
D03*
D82*
X10000300Y11649600D02*
D03*
X9746300D02*
D03*
X10254300D02*
D03*
D83*
X10070000Y7494000D02*
D03*
Y7240000D02*
D03*
D84*
X10508300Y11649600D02*
D03*
D85*
X11027300D02*
D03*
X9227300D02*
D03*
D86*
X10647300Y11289600D02*
D03*
D87*
X10884900Y7139000D02*
D03*
X11088100D02*
D03*
X10986500Y7647000D02*
D03*
D88*
X11640000Y10621353D02*
D03*
X12740000Y8970000D02*
D03*
X10300000Y8330000D02*
D03*
X11110000Y8960000D02*
D03*
X10880000Y8710000D02*
D03*
X13630000Y11820000D02*
D03*
X13710001Y10921353D02*
D03*
X11740000Y11810000D02*
D03*
X13739999Y9911353D02*
D03*
X13589999Y9081353D02*
D03*
X13297125Y9079599D02*
D03*
X12070000Y9091353D02*
D03*
X11570000Y9261353D02*
D03*
X11540000Y10810000D02*
D03*
X11539099Y11197710D02*
D03*
X10950000Y8630000D02*
D03*
X11200000Y8890000D02*
D03*
X9200000Y8580000D02*
D03*
X9500000D02*
D03*
X9770000Y9160000D02*
D03*
X10190000Y9280000D02*
D03*
X10630000Y7300000D02*
D03*
X10710000Y7510000D02*
D03*
X9940000Y9350000D02*
D03*
X10040000Y9510000D02*
D03*
X10710000Y9930000D02*
D03*
D89*
X10435000Y9635000D02*
D03*
Y9745000D02*
D03*
X10325000D02*
D03*
Y9635000D02*
D03*
X10007200Y8780400D02*
D03*
X10117200D02*
D03*
X10227200D02*
D03*
Y8670400D02*
D03*
X10007200D02*
D03*
X10117200D02*
D03*
X10227200Y8560400D02*
D03*
X10117200D02*
D03*
X10007200D02*
D03*
%TF.MD5,61f8e253e87f8fffbf26f548817ee050*%
M02*
